<?xml version="1.0" standalone="no"?>
<!DOCTYPE svg PUBLIC "-//W3C//DTD SVG 1.1//EN" "http://www.w3.org/Graphics/SVG/1.1/DTD/svg11.dtd" >
<!--
2013-9-30: Created.
-->
<svg>
<metadata>
Created by iconfont
</metadata>
<defs>

<font id="iconfont" horiz-adv-x="1024" >
  <font-face
    font-family="iconfont"
    font-weight="500"
    font-stretch="normal"
    units-per-em="1024"
    ascent="896"
    descent="-128"
  />
    <missing-glyph />
    
    <glyph glyph-name="x" unicode="x" horiz-adv-x="1001"
d="M281 543q-27 -1 -53 -1h-83q-18 0 -36.5 -6t-32.5 -18.5t-23 -32t-9 -45.5v-76h912v41q0 16 -0.5 30t-0.5 18q0 13 -5 29t-17 29.5t-31.5 22.5t-49.5 9h-133v-97h-438v97zM955 310v-52q0 -23 0.5 -52t0.5 -58t-10.5 -47.5t-26 -30t-33 -16t-31.5 -4.5q-14 -1 -29.5 -0.5
t-29.5 0.5h-32l-45 128h-439l-44 -128h-29h-34q-20 0 -45 1q-25 0 -41 9.5t-25.5 23t-13.5 29.5t-4 30v167h911zM163 247q-12 0 -21 -8.5t-9 -21.5t9 -21.5t21 -8.5q13 0 22 8.5t9 21.5t-9 21.5t-22 8.5zM316 123q-8 -26 -14 -48q-5 -19 -10.5 -37t-7.5 -25t-3 -15t1 -14.5
t9.5 -10.5t21.5 -4h37h67h81h80h64h36q23 0 34 12t2 38q-5 13 -9.5 30.5t-9.5 34.5q-5 19 -11 39h-368zM336 498v228q0 11 2.5 23t10 21.5t20.5 15.5t34 6h188q31 0 51.5 -14.5t20.5 -52.5v-227h-327z" />
    

    
    <glyph glyph-name="shezhi" unicode="&#58907;" d="M848.2028 271.362c61.7667 0 111.9928 50.2538 111.9928 111.9928 0 61.7667-50.2262 111.9949-111.9928 111.9949l-19.414016 0c-3.9373 11.1831-8.448 22.1194-13.4779 32.7014l13.6704 13.698c21.0811 21.0801 32.7025 49.2165 32.7025 79.1828 0 29.995-11.6214 58.1028-32.7025 79.1839-21.0801 21.1098-49.2165 32.7035-79.1839 32.7035-29.9704 0-58.1048-11.5937-79.1818-32.7035l-13.6704-13.6714c-10.6107 5.033-21.5214 9.5437-32.7311 13.481l0 19.412992c0 61.7656-50.2292 111.9939-111.9949 111.9939-61.7636 0-111.9928-50.2282-111.9928-111.9939l0-19.412992c-11.2118-3.9373-22.1225-8.448-32.7322-13.481l-13.6714 13.6714c-21.077 21.1098-49.2124 32.7035-79.1828 32.7035-29.9663 0-58.0987-11.5937-79.1839-32.7035-21.076-21.0801-32.7014-49.1889-32.7014-79.1839 0-29.9674 11.6255-58.1028 32.7014-79.1828l13.6714-13.6704c-5.0289-10.6097-9.5406-21.5194-13.4779-32.7291l-19.414016 0c-61.7636 0-111.9928-50.2282-111.9928-111.9949 0-61.739 50.2292-111.9928 111.9928-111.9928l19.414016 0c3.9373-11.2118 8.449-22.1215 13.4779-32.7291l-13.6714-13.6714c-21.076-21.0811-32.7014-49.1909-32.7014-79.1849 0-29.996 11.6255-58.1028 32.7014-79.1828 21.0852-21.078 49.2175-32.7035 79.1839-32.7035 29.9715 0 58.1059 11.6255 79.1828 32.7035l13.6714 13.6704c10.6097-5.0309 21.5204-9.5119 32.7322-13.4789l0-19.416064c0-61.7359 50.2292-111.9928 111.9928-111.9928 61.7656 0 111.9949 50.2569 111.9949 111.9928l0 19.416064c11.2097 3.967 22.1204 8.448 32.7311 13.5045l13.6704-13.695c21.077-21.078 49.2124-32.7035 79.1818-32.7035 29.9674 0 58.1038 11.6255 79.1839 32.7035 21.0811 21.0801 32.7025 49.1868 32.7025 79.1828 0 29.994-11.6214 58.1038-32.7025 79.1849l-13.6704 13.698c5.0299 10.6076 9.5406 21.5194 13.4779 32.7025L848.202752 271.3629zM789.3873 185.3706c10.5277-10.5001 16.297-24.5555 16.297-39.594 0-15.0108-5.7692-29.0673-16.297-39.5909-21.0504-21.0278-58.1294-21.0278-79.1808 0l-43.1186 43.1452-18.4842-10.3629c-18.647-10.4172-38.826-18.7556-60.0177-24.7695l-20.3694-5.7723 0-61.057024c0-30.8675-25.1279-55.9933-55.9985-55.9933s-55.9985 25.1259-55.9985 55.9933l0 61.057024-20.3674 5.7723c-21.2183 6.0416-41.4259 14.3534-60.0156 24.7695l-18.4852 10.3363-43.1206-43.1176c-21.0534-21.0278-58.1294-21.0278-79.1828 0-10.5267 10.5236-16.2939 24.5801-16.2939 39.5909 0 15.0385 5.7672 29.0939 16.2939 39.594l43.1176 43.1165-10.3588 18.4852c-10.3916 18.5907-18.7054 38.7697-24.746 60.0412l-5.7733 20.3448-61.053952 0c-30.8695 0-55.9954 25.1279-55.9954 55.9964 0 30.8705 25.1249 55.9985 55.9954 55.9985l61.053952 0 5.7733 20.3704c6.0406 21.2449 14.3544 41.4505 24.746 60.0156l10.3588 18.4832-43.1176 43.1186c-10.5267 10.5277-16.2939 24.5811-16.2939 39.5919 0 15.0395 5.7672 29.0939 16.2939 39.5919 21.0545 21.0278 58.1304 21.0278 79.1828 0l43.1206-43.1176 18.4852 10.3608c18.5897 10.3905 38.7983 18.731 60.0156 24.746l20.3674 5.7702 0 61.056c0 30.8951 25.1279 55.9964 55.9985 55.9964s55.9985-25.1013 55.9985-55.9964l0-61.056 20.3694-5.7702c21.1917-6.016 41.3706-14.3278 60.0177-24.7716l18.4842-10.3352 43.1186 43.1176c21.0524 21.0278 58.1315 21.0278 79.1808 0 10.5277-10.498 16.297-24.5524 16.297-39.5919 0-15.0108-5.7692-29.0642-16.297-39.5919l-43.0909-43.1186 10.3076-18.4832c10.4479-18.6737 18.7832-38.8813 24.7706-60.0156l5.7733-20.3704 61.053952 0c30.8695 0 55.9974-25.1279 55.9974-55.9985 0-30.8685-25.1279-55.9964-55.9974-55.9964l-61.053952 0-5.7733-20.3448c-5.9884-21.161-14.3227-41.342-24.7706-60.0412l-10.3076-18.4852L789.3873 185.3706zM512.2181 551.3472c-92.6372 0-167.9913-75.3551-167.9913-167.9923 0-92.6351 75.3541-167.9913 167.9913-167.9913s167.9913 75.3562 167.9913 167.9913C680.2094 475.9921 604.8553 551.3472 512.2181 551.3472zM512.2181 271.362c-61.7636 0-111.9928 50.2538-111.9928 111.9928 0 61.7667 50.2292 111.9949 111.9928 111.9949 61.7656 0 111.9949-50.2282 111.9949-111.9949C624.213 321.6159 573.9848 271.362 512.2181 271.362z"  horiz-adv-x="1024" />

    
    <glyph glyph-name="xiazai1" unicode="&#58896;" d="M950.878-44.8163H73.12195918367347c-23.0504 0-41.7541-18.7037-41.7959-41.775 0-11.5148 4.096-21.3577 12.2462-29.5288 8.1711-8.1711 18.014-12.2462 29.5497-12.2462h877.756081632653c11.5357 0 21.3786 4.096 29.5497 12.2462 8.1502 8.1502 12.2253 17.9931 12.2462 29.5288C992.6322-63.52 973.9494-44.8163 950.878-44.8163zM491.0602 46.6749c5.2663-5.0782 12.497-7.7531 20.9398-7.7531s15.6735 2.6749 20.9398 7.7531l266.0937 256.0627c6.6038 6.353 7.8158 14.4823 3.2392 21.8384C797.696 331.9112 773.3708 331.3469 762.7755 331.3469h-104.48979591836734V707.5102040816327c0 22.7997-12.1626 41.7959-41.7959 41.7959h-208.97959183673467c-29.6333 0-41.7959-18.9962-41.7959-41.7959v-376.1632653061224h-125.38775510204081c-10.5953 0-14.0225 0.5642-18.5992-6.7709-4.5976-7.3561-3.3855-15.4854 3.2183-21.8384L491.0602 46.6749z"  horiz-adv-x="1024" />

    
    <glyph glyph-name="gouwuche1" unicode="&#58892;" d="M818.112-132c-45.056 0-81.664 36.544-81.664 81.728 0 44.992 36.608 81.6 81.664 81.6s81.6-36.608 81.6-81.6C899.776-95.456 863.168-132 818.112-132zM818.112-6.304c-24.256 0-44.032-19.648-44.032-43.968 0-24.384 19.776-44.032 44.032-44.032s43.968 19.712 43.968 44.032C862.08-25.952 842.368-6.304 818.112-6.304zM449.536-132c-44.992 0-81.664 36.544-81.664 81.728 0 44.992 36.672 81.6 81.664 81.6 45.056 0 81.664-36.608 81.664-81.6C531.264-95.456 494.656-132 449.536-132zM449.536-6.304c-24.256 0-44.032-19.648-44.032-43.968 0-24.384 19.776-44.032 44.032-44.032 24.32 0 44.032 19.712 44.032 44.032C493.632-25.952 473.856-6.304 449.536-6.304zM893.824 55.328 310.976 55.328c-6.272 0-11.968 3.072-15.488 8.192-3.648 5.056-4.352 11.584-2.112 17.344l54.208 143.488L204.16 646.56 82.88 646.56C72.384 646.56 64 654.944 64 665.312c0 10.432 8.384 18.816 18.88 18.816l134.784 0c8.064 0 15.232-5.12 17.856-12.8l149.824-441.28C386.816 226.016 386.816 221.472 385.216 217.44l-47.04-124.48 555.712 0c10.304 0 18.816-8.32 18.816-18.752C912.64 63.84 904.128 55.328 893.824 55.328zM837.184 205.344 367.552 205.344c-10.368 0-18.816 8.384-18.816 18.688 0 10.496 8.448 18.944 18.816 18.944l455.808 0 92.928 290.368L260.288 533.344c-10.56 0-18.944 8.384-18.944 18.816 0 10.368 8.384 18.816 18.944 18.816L942.08 570.976c6.016 0 11.712-2.816 15.168-7.68 3.584-4.864 4.544-11.136 2.816-16.832l-104.96-328C852.608 210.528 845.376 205.344 837.184 205.344z"  horiz-adv-x="1024" />

    
    <glyph glyph-name="jinlingyingcaiwangtubiao09" unicode="&#59180;" d="M757.811 449.587l-230.733 292.403c-7.296 9.242-22.861 9.242-30.157 0l-230.733-292.403c-6.579-8.32-5.146-20.378 3.174-26.957 8.371-6.605 20.429-5.12 26.982 3.2l196.454 248.96 0-828.902c0-10.598 8.602-19.2 19.2-19.2s19.2 8.602 19.2 19.2v828.902l196.454-248.96c3.789-4.813 9.395-7.322 15.104-7.322 4.147 0 8.346 1.357 11.878 4.122 8.32 6.579 9.728 18.637 3.174 26.957z"  horiz-adv-x="1024" />

    
    <glyph glyph-name="xiazaijiangyiicon" unicode="&#58905;" d="M841.149001 78.01579 843.041156 79.907946 839.428859 79.907946ZM848.889635 79.907946 848.889635 85.756425 843.041156 79.907946ZM888.624895 284.948765 888.624895 520.264069c0 21.845792-17.717453 39.73526-39.73526 39.73526L520.514698 559.999328c-21.845792 0-39.73526-17.717453-39.73526-39.73526L480.779439 79.219889c0-21.845792 17.717453-39.73526 39.73526-39.73526l328.374937 0c7.568621 0 14.621199 2.064169 20.641693 5.676466 56.0766 12.901058 97.876029 62.957164 97.876029 122.818075C967.235344 220.959516 934.724677 266.199227 888.624895 284.948765zM521.202755 79.219889l-0.688056 440.356123 327.686881 0 0.344028-225.682513c-2.408198 0.172014-4.816395 0.172014-7.396607 0.172014-69.665715 0-126.086343-56.420628-126.086343-126.086343 0-34.402822 13.761129-65.70939 36.294977-88.415253L521.202755 79.219889zM888.624895 125.491685l-39.73526-39.73526 0-5.84848-5.84848 0-1.720141-1.720141-1.720141 1.720141-88.587267 88.587267 17.717453 17.717453 58.484798-58.484798L827.215858 258.114564l21.673778 0 6.880564 0 0-130.386696 33.026709 33.026709 25.458088 25.458088 17.717453-17.717453L888.624895 125.491685zM566.958508 450.42634l235.315303 0 0-30.446498-235.315303 0 0 30.446498ZM566.958508 370.955821l235.315303 0 0-30.446498-235.315303 0 0 30.446498ZM566.958508 291.657316l147.760121 0 0-30.446498-147.760121 0 0 30.446498Z"  horiz-adv-x="1449" />

    
    <glyph glyph-name="jian" unicode="&#58921;" d="M737.338676 332.623002 543.137673 332.623002l-64.730257 0L284.205389 332.623002c-17.86488 0-32.362059-14.499226-32.362059-32.367175 0-17.86488 14.498202-32.363082 32.362059-32.363082l194.201004 0 64.730257 0 194.201004 0c17.899672 0 32.365128 14.499226 32.365128 32.363082C769.703805 318.123776 755.238348 332.623002 737.338676 332.623002L737.338676 332.623002zM511.285221-146.816418c-60.366879 0-118.941949 11.828396-174.09713 35.155684-53.261041 22.530133-101.089349 54.772464-142.154627 95.839789-41.066301 41.066301-73.311703 88.893586-95.839789 142.15565-23.328311 55.153134-35.156708 113.728204-35.156708 174.09713 0 60.365856 11.828396 118.940926 35.156708 174.09713 22.528086 53.260018 54.773488 101.089349 95.839789 142.154627 41.065278 41.067324 88.893586 73.311703 142.154627 95.838765 55.155181 23.330358 113.730251 35.157731 174.09713 35.157731 60.367903 0 118.941949-11.827373 174.09713-35.157731 53.261041-22.527063 101.088326-54.771441 142.15565-95.838765 41.068348-41.065278 73.311703-88.894609 95.838765-142.154627 23.328311-55.156204 35.156708-113.730251 35.156708-174.09713 0-60.369949-11.82942-118.943996-35.156708-174.09713-22.528086-53.262064-54.770418-101.089349-95.838765-142.15565-41.067324-41.067324-88.894609-73.310679-142.15565-95.839789C630.22717-134.988022 571.653123-146.816418 511.285221-146.816418zM511.285221 696.158668c-218.203674 0-395.72581-177.521113-395.72581-395.72581s177.522136-395.726833 395.72581-395.726833c218.203674 0 395.726833 177.522136 395.726833 395.726833S729.488895 696.158668 511.285221 696.158668z"  horiz-adv-x="1024" />

    
    <glyph glyph-name="iconfontshijuan" unicode="&#58893;" d="M756.326387 503.765657 368.05972 503.765657c-12.929293 0-23.40202-10.472727-23.40202-23.40202 0-12.929293 10.472727-23.40202 23.40202-23.40202l388.266667 0c12.929293 0 23.40202 10.472727 23.40202 23.40202C779.728407 493.292929 769.25568 503.765657 756.326387 503.765657L756.326387 503.765657zM736.15669 316.420202c0 12.929293-10.472727 23.40202-23.40202 23.40202L368.05972 339.822222c-12.929293 0-23.40202-10.472727-23.40202-23.40202 0-12.929293 10.472727-23.40202 23.40202-23.40202l344.694949 0C725.683963 293.018182 736.15669 303.490909 736.15669 316.420202L736.15669 316.420202zM368.05972 175.620202c-12.929293 0-23.40202-10.472727-23.40202-23.40202 0-12.929293 10.472727-23.40202 23.40202-23.40202l229.753535 0c12.929293 0 23.40202 10.472727 23.40202 23.40202 0 12.929293-10.472727 23.40202-23.40202 23.40202L368.05972 175.620202 368.05972 175.620202zM607.898104-65.640404 173.861741-65.640404c-11.119192 0-14.222222 3.10303-14.222222 14.222222L159.639518 654.909091c0 11.119192 3.10303 14.222222 14.222222 14.222222l659.911111 0c11.119192 0 14.222222-3.10303 14.222222-14.222222l0-369.907071 0.129293 0c0.517172-12.412121 10.731313-22.367677 23.40202-22.367677 12.670707 0 22.755556 9.955556 23.40202 22.367677l0.129293 0L895.0577 692.40404c0 12.929293-10.472727 23.40202-23.40202 23.40202L136.108205 715.806061C123.178912 715.806061 112.706185 705.333333 112.706185 692.40404l0-781.446465c0-12.929293 10.472727-23.40202 23.40202-23.40202l471.143434 0M907.599114 229.535354M367.413256-65.640404c-12.929293 0-23.40202-10.472727-23.40202-23.40202 0-12.929293 10.472727-23.40202 23.40202-23.40202l229.753535 0c12.929293 0 23.40202 10.472727 23.40202 23.40202 0 12.929293-10.472727 23.40202-23.40202 23.40202L367.413256-65.640404 367.413256-65.640404zM267.211236 480.363636m-33.616162 0a26 26 0 1 0 67.232323 0 26 26 0 1 0-67.232323 0ZM271.736488 314.868687m-33.616162 0a26 26 0 1 0 67.232323 0 26 26 0 1 0-67.232323 0ZM271.736488 151.313131m-33.616162 0a26 26 0 1 0 67.232323 0 26 26 0 1 0-67.232323 0ZM630.395074 75.418182l74.214141-59.216162 184.888889 170.408081c0 0 12.412121 11.377778 23.272727 2.456566 3.232323-2.585859 6.981818-10.214141-1.422222-21.979798L718.314266-59.046465c0 0-14.739394-20.29899-32.323232 0.258586l-83.393939 112.484848c0 0-9.826263 15.256566 2.456566 24.307071C609.320326 81.107071 618.75871 85.890909 630.395074 75.418182L630.395074 75.418182zM630.395074 75.418182"  horiz-adv-x="1024" />

    
    <glyph glyph-name="fanhui01" unicode="&#58887;" d="M819.807435 574.226482c-60.046584 59.846016-139.876748 92.805686-224.785579 92.805686L234.136551 667.032168l98.516758 98.518804-28.943193 28.943193L155.784042 646.566044l147.926074-147.929144 28.943193 28.943193L234.136551 626.09992l360.885304 0c74.000388 0 143.56986-28.718065 195.890482-80.864726 52.30118-52.128241 81.106226-121.43063 81.106226-195.140399l0-20.444635c0-73.711815-28.804023-143.014204-81.106226-195.142445-52.320623-52.145637-121.888048-80.862679-195.890482-80.862679l-410.29462 0 0-40.932248 410.29462 0c84.909855 0 164.738995 32.958646 224.785579 92.803639 60.063981 59.864436 93.142353 139.463332 93.142353 224.133733L912.949788 350.093772C912.949788 434.763151 879.871415 514.361023 819.807435 574.226482z"  horiz-adv-x="1024" />

    
    <glyph glyph-name="icon05" unicode="&#58903;" d="M344.292536 188.456249l379.691418 0 0 51.167764-379.691418 0L344.292536 188.456249zM518.583245 544.614589l-174.290709 0 0-51.167764 174.290709 0L518.583245 544.614589zM344.292536 340.950513l379.691418 0 0 51.167764-379.691418 0L344.292536 340.950513zM852.437556 553.635466l-190.796406 194.604311-15.045369 15.346236-438.086118 0 0-779.325985 51.124783-0.042981 556.223275-0.467673 51.210745-0.042981 0 555.005483L852.437556 553.635466zM646.290821 690.810102l143.478505-146.342876-143.478505 0L646.290821 690.810102zM815.900703 34.917138l-556.223275 0.467673 0 677.033437 335.444606 0 0-219.118787 220.778669 0L815.900703 34.917138z"  horiz-adv-x="1025" />

    
    <glyph glyph-name="jia" unicode="&#59016;" d="M821.196 693.127C738.61 775.663 628.83 821.117 512.078 821.117c-116.748 0-226.506-45.459-309.056-128.002-82.571-82.56-128.044-192.34-128.044-309.113-0.021-116.762 45.428-226.555 127.984-309.163 82.557-82.514 192.311-127.956 309.044-127.956 116.763 0 226.568 45.471 309.197 128.044C991.602 245.34 991.604 522.66 821.196 693.127zM785.853 110.287c-73.179-73.13-170.433-113.404-273.847-113.404-103.383 0-200.584 40.245-273.688 113.311-73.107 73.153-113.359 170.391-113.341 273.804 0 103.42 40.272 200.644 113.398 273.76 73.107 73.101 170.31 113.359 273.702 113.359 103.403 0 200.631-40.257 273.766-113.347C936.754 506.805 936.755 261.202 785.853 110.287zM732 409 537 409 537 604c0 13.807-11.192 25-25 25-13.807 0-25-11.193-25-25l0-195L292 409c-13.807 0-25-11.193-25-25 0-13.808 11.193-25 25-25l195 0 0-195c0-13.808 11.193-25 25-25 13.808 0 25 11.192 25 25L537 359l195 0c13.808 0 25 11.192 25 25C757 397.807 745.808 409 732 409z"  horiz-adv-x="1024" />

    
    <glyph glyph-name="guanbi" unicode="&#58976;" d="M924.37449 559.564551c-22.583344 53.393048-54.907541 101.338013-96.073102 142.504598-41.165562 41.166585-89.10848 73.489758-142.503575 96.073102-55.29435 23.38664-114.01473 35.245735-174.484963 35.245735-60.513212 0-119.234615-11.858072-174.528965-35.245735-53.393048-22.583344-101.338013-54.907541-142.504598-96.073102-41.166585-41.166585-73.489758-89.110527-96.073102-142.503575-23.388686-55.295374-35.246759-114.01473-35.246759-174.555571 0-60.512189 11.858072-119.234615 35.246759-174.527942 22.583344-53.395094 54.906517-101.339036 96.073102-142.506644 41.166585-41.165562 89.11155-73.487711 142.504598-96.071056 55.295374-23.388686 114.01473-35.246759 174.528965-35.246759 60.470233 0 119.190613 11.858072 174.485987 35.246759 53.395094 22.582321 101.338013 54.905494 142.503575 96.073102 41.165562 41.165562 73.489758 89.109504 96.073102 142.504598 23.388686 55.293327 35.246759 114.015753 35.246759 174.527942C959.622272 445.549821 947.7642 504.269177 924.37449 559.564551zM511.32513-4.44294c-215.095893 0-389.465223 174.36933-389.465223 389.466246S296.229237 774.489552 511.32513 774.489552c215.095893 0 389.466246-174.36933 389.466246-389.466246S726.421023-4.44294 511.32513-4.44294zM696.291818 236.732935l-0.62831 0.627287 0 0L548.999171 384.024559 681.375084 516.401496l14.287401 14.287401 0.62831 0.62831c11.499915 11.499915 11.499915 30.146601 0 41.647539s-30.146601 11.499915-41.646516 0l-0.62831-0.62831-0.001023 0L507.351632 425.673122 365.345384 567.678346l0 0-5.287423 5.287423c-11.499915 11.499915-30.146601 11.499915-41.646516 0-11.499915-11.500938-11.499915-30.146601 0-41.647539l5.2864-5.287423 9.628288-9.628288 132.376936-132.376936L323.697845 242.019335l0.001023 0-5.287423-5.2864c-11.499915-11.501962-11.499915-30.147624 0-41.648562 11.499915-11.499915 30.146601-11.499915 41.647539 0.001023l5.2864 5.2864 9.629311 9.629311 132.375913 132.375913 132.376936-132.375913 14.287401-14.288424 0.627287-0.627287c11.499915-11.499915 30.147624-11.499915 41.647539 0S707.791733 225.231997 696.291818 236.732935z"  horiz-adv-x="1024" />

    
    <glyph glyph-name="xia" unicode="&#58904;" d="M360.12 248.48599998999998c-12.608-12.607-12.608-33.009 0-45.618l151.879-151.878 151.878 151.878c12.609 12.609 12.609 33.009 0 45.617-12.608 12.608-33.009 12.608-45.615 0l-73.98-73.979v533.224c0 17.811-14.424 32.258-32.259 32.258-17.836 0-32.259-14.447-32.259-32.258v-533.222l-73.978 73.979c-12.609 12.608-33.01 12.608-45.618 0h-0.048z"  horiz-adv-x="1024" />

    
    <glyph glyph-name="huidaodingbu" unicode="&#58891;" d="M509.44 628.48C504.32 633.6 498.56 636.16 492.8 637.44 488.96 639.36 484.48 640 480 640S471.04 639.36 467.2 637.44C461.44 636.16 455.68 633.6 450.56 628.48l-313.6-313.6c-14.08-14.08-14.08-35.84 0-49.92 14.08-14.08 35.84-14.08 49.92 0L448 526.08l0-558.08C448-49.92 462.08-64 480-64S512-49.92 512-32L512 526.08l261.12-261.12c14.08-14.08 35.84-14.08 49.92 0 14.08 14.08 14.08 35.84 0 49.92L509.44 628.48zM864 768l-768 0C78.08 768 64 753.92 64 736 64 718.08 78.08 704 96 704l768 0C881.92 704 896 718.08 896 736 896 753.92 881.92 768 864 768z"  horiz-adv-x="1024" />

    
    <glyph glyph-name="guanbi2" unicode="&#58909;" d="M511.829108 782.293285c219.430618 0 397.952524-178.520883 397.952524-397.952524S731.259726-13.61074 511.829108-13.61074 113.876584 164.90912 113.876584 384.341784 292.39849 782.293285 511.829108 782.293285M511.829108 832.038246c-247.25636 0-447.696462-200.441125-447.696462-447.696462 0-247.25636 200.440102-447.696462 447.696462-447.696462s447.696462 200.440102 447.696462 447.696462C959.52557 631.597121 759.085468 832.038246 511.829108 832.038246L511.829108 832.038246z"  horiz-adv-x="1024" />

    
    <glyph glyph-name="xiazai" unicode="&#58885;" d="M906.876466 360.031099 906.876466-10.411885 117.229958-10.411885 117.239168 360.031099 64.597227 360.031099 63.940265-63.054849 959.439612-63.054849 959.51943 360.031099ZM703.144388 360.031099 538.37981 195.267545 538.37981 831.963545 485.736846 831.963545 485.736846 195.267545 320.974315 360.031099 246.526743 360.031099 512.059352 105.400794 777.591961 360.031099Z"  horiz-adv-x="1024" />

    
    <glyph glyph-name="iconzhenghe62" unicode="&#59209;" d="M572.004 178.161v309.775c0 36.1 56.396 36.1 56.396 0v-309.775c0-36.103-56.396-36.103-56.396-0v0 0 0zM402.761 178.161v309.775c0 36.1 56.423 36.1 56.423 0v-309.775c0.001-36.103-56.423-36.103-56.423-0v0 0 0zM851.545 628.748h-110.298v56.346c0 46.646-37.927 84.468-83.748 84.468h-282.938c-46.719 0-84.618-37.821-84.618-84.468v-56.346h-110.299c-36.153 0-36.153-56.294 0-56.294h671.902c36.127 0 36.127 56.294-0 56.294v0 0 0zM346.366 685.089c0 14.964 13.214 28.177 28.196 28.177h282.938c14.981 0 27.323-11.448 27.323-28.177v-56.34h-338.458v56.34zM713.022-18.97h-394.884c-46.697 0-84.591 37.815-84.591 84.463v422.443c0 16.73 13.214 28.173 28.196 28.173 14.986 0 28.2-11.443 28.2-28.173v-422.442c0-14.931 13.236-28.145 28.196-28.145h394.884c14.981 0 28.223 13.214 28.223 28.145v421.571c0 36.972 56.396 36.972 56.396 0v-421.571c0-46.648-37.899-84.464-84.62-84.464v0 0zM713.022-18.97z"  horiz-adv-x="1024" />

    
    <glyph glyph-name="danxuan" unicode="&#59089;" d="M506.892 814.151c-241.603 0-439.276-197.674-439.276-439.276 0-241.598 197.674-439.271 439.276-439.271 241.598 0 439.269 197.674 439.269 439.271 0 241.603-197.674 439.276-439.269 439.276v0zM506.892-20.467c-219.637 0-395.348 175.709-395.348 395.342 0 219.637 175.709 395.348 395.348 395.348 219.633 0 395.342-175.709 395.342-395.348-0.001-219.633-175.711-395.342-395.342-395.342v0zM506.892-20.467zM287.253 374.876c0-28.751 5.714-57.488 16.719-84.049 11.002-26.562 27.28-50.929 47.611-71.255 20.331-20.331 44.69-36.609 71.255-47.612 26.559-11.006 55.301-16.718 84.053-16.718 28.751 0 57.488 5.714 84.049 16.718 26.562 11.003 50.929 27.282 71.255 47.612 20.331 20.327 36.609 44.69 47.612 71.255 11.006 26.56 16.718 55.299 16.718 84.049 0 28.752-5.714 57.494-16.718 84.053-11.003 26.563-27.282 50.925-47.612 71.255-20.327 20.331-44.69 36.609-71.255 47.611-26.56 11.007-55.299 16.719-84.049 16.719-28.752 0-57.494-5.714-84.053-16.719-26.563-11.002-50.925-27.28-71.255-47.611-20.331-20.331-36.609-44.69-47.611-71.255-11.007-26.559-16.719-55.301-16.719-84.053v0zM287.253 374.876z"  horiz-adv-x="1024" />

    
    <glyph glyph-name="fangdajing" unicode="&#59000;" d="M445.114149 24.354943C207.167828 24.354943 13.415033 218.018711 13.323958 456.080665 13.415033 694.245973 207.167828 888.046864 445.2042 888.090866c238.121306 0 431.882288-193.753819 431.966199-431.92629C877.170398 218.069877 683.41658 24.354943 445.114149 24.354943L445.114149 24.354943 445.114149 24.354943zM445.2042 842.484156C232.280786 842.43913 59.021743 669.116643 58.929646 456.080665c0.092098-212.906018 173.350117-386.091382 386.18348-386.091382 213.081003 0 386.449539 173.231413 386.449539 386.175293C831.478753 669.154505 658.195152 842.484156 445.2042 842.484156L445.2042 842.484156 445.2042 842.484156zM445.2042 842.484156M189.540356 456.301699l-45.63434 0c0 166.147064 135.242194 301.31865 301.298184 301.31865l0-45.607734C304.261167 712.018755 189.540356 597.290781 189.540356 456.301699L189.540356 456.301699 189.540356 456.301699zM189.540356 456.301699M987.010039-125.950318c-5.78475 0-11.661597 2.203178-16.121166 6.66377L716.907345 134.668375c-8.919137 8.892531-8.919137 23.331381 0 32.250518 8.919137 8.898671 23.337521 8.898671 32.255635 0l253.975389-253.955946c8.892531-8.912997 8.892531-23.330358 0-32.249495C998.677776-123.746116 992.893027-125.950318 987.010039-125.950318L987.010039-125.950318 987.010039-125.950318zM987.010039-125.950318"  horiz-adv-x="1024" />

    
    <glyph glyph-name="tongjifenxi" unicode="&#58900;" d="M87.694271 216.044754l121.224945 0 0-279.925411L87.694271-63.880657 87.694271 216.044754zM330.153372 328.014918l121.229039 0 0-391.895575L330.153372-63.880657 330.153372 328.014918zM572.616566 384 693.846628 384l0-447.880657L572.616566-63.880657 572.616566 384zM815.075667 551.955246l121.229039 0 0-615.835903L815.075667-63.880657 815.075667 551.955246zM754.461147 831.880657l60.614519-55.985082-242.459101-223.940328-121.234155 111.970164-363.688139-335.910493 60.614519-55.985082 303.07362 279.925411 121.234155-111.970164 303.078737 279.925411 60.610426-55.985082L936.305729 831.880657 754.461147 831.880657z"  horiz-adv-x="1024" />

    
    <glyph glyph-name="sousuo" unicode="&#59021;" d="M72.824471 304.459294C29.786353 505.765647 151.913412 703.457882 345.569882 746.074353c193.656471 42.586353 385.536-86.016 428.544-287.322353 43.068235-201.306353-78.998588-399.028706-272.685176-441.645176C307.742118-25.449412 115.892706 103.183059 72.824471 304.459294L72.824471 304.459294zM753.302588 105.652706l227.388235-152.395294 41.923765 67.915294-226.484706 151.853176c45.357176 88.214588 61.650824 193.264941 39.002353 299.128471-50.537412 236.272941-275.757176 387.312941-503.115294 337.287529C104.658824 759.446588-38.671059 527.390118 11.866353 291.087059c50.537412-236.333176 275.757176-387.343059 503.115294-337.317647C612.954353-24.696471 695.326118 30.72 753.302588 105.652706L753.302588 105.652706z"  horiz-adv-x="1024" />

    
    <glyph glyph-name="wenjianjia" unicode="&#58922;" d="M64.000512 60.966415l0 646.984051c0 37.456002 30.221242 68.39765 68.001631 68.39765l284.929832 0c37.77118 0 68.532726-30.939601 68.532726-68.39765l0-38.534564-18.886101 0c-11.395515 0-18.707023-9.807347-18.708047-16.37389 0-7.045449 0.062422 53.845241 0.062422 53.845241 0 18.191278-13.732742 32.002814-31.002023 32.002814l-284.928808 0c-17.270304 0-31.302874-14.112388-31.302874-30.939601L100.699268 267.036335 64.000512 60.966415zM857.813359 526.665995l0 74.36249c0 17.371611-14.03257 30.939601-31.293664 30.939601L466.578599 631.968086c-10.259647 0-18.708047 9.550498-18.708047 19.859264 0 11.288068 11.512172 18.035736 18.708047 17.588552l360.485494 0c37.229852 0 67.989351-30.396227 67.989351-68.387417l0-74.382956C895.053444 526.645529 865.633449 526.665995 857.813359 526.665995M821.654907-10.689435 130.379182-10.689435c-36.698757 0-75.457425 16.747396-66.378671 72.190015 16.742279 102.241388 71.232202 398.947404 71.232202 398.947404 1.082656 36.910581 30.760523 66.218012 66.378671 66.218012l691.819099 0c36.700803 0 66.377647-30.396227 66.377647-68.38844 0-1.088796 0-2.168382-0.542351-3.259224l-71.232202-398.944334c-1.072423-36.903418-30.220218-66.764456-66.378671-66.764456L821.654907-10.689435zM101.240596 56.619419c0.543375-16.82619 13.491242-29.851829 29.137562-29.851829l691.276748 0c16.197881 0 24.497901 14.260767 29.147795 30.940624 0.288572 1.039677 0.542351 2.714826 0.542351 3.794412l71.232202 398.401983c-0.542351 16.281792-13.492265 29.848759-29.148819 29.848759L201.609338 489.753368c-16.187648 0-29.135516-14.111364-29.135516-31.475812l0-3.259224L101.240596 56.619419 101.240596 56.619419z"  horiz-adv-x="1024" />

    
    <glyph glyph-name="shoucang2" unicode="&#58895;" d="M512 854.148c-9.573 0-19.145-7.358-26.407-22.072l-94.695-191.873c-14.524-29.428-52.98-57.369-85.456-62.087l-211.744-30.769c-32.477-4.719-39.822-27.322-16.321-50.229l153.22-149.353c23.5-22.908 38.189-68.114 32.641-100.46l-36.171-210.888c-4.022-23.446 4.971-37.235 21.289-37.235 6.194 0 13.447 1.989 21.439 6.191l189.389 99.568c14.524 7.635 33.67 11.454 52.815 11.454s38.291-3.819 52.815-11.454l189.389-99.568c7.994-4.203 15.244-6.191 21.439-6.191 16.315 0 25.309 13.791 21.289 37.235l-36.171 210.889c-5.547 32.346 9.141 77.552 32.641 100.46l153.22 149.353c23.501 22.907 16.156 45.511-16.321 50.229l-211.744 30.769c-32.477 4.719-70.933 32.659-85.456 62.087l-94.695 191.872c-7.262 14.714-16.834 22.072-26.407 22.072v0z"  horiz-adv-x="1024" />

    
    <glyph glyph-name="chexiao" unicode="&#59229;" d="M499.5072 60.6208c-13.7216 0-28.0576 5.3248-41.1648 15.9744L143.9744 328.9088c-6.3488 4.9152-10.6496 10.4448-14.1312 14.9504-4.3008 5.3248-7.3728 10.0352-9.8304 14.9504-1.4336 2.6624-2.6624 5.7344-3.8912 8.8064-2.048 4.9152-3.2768 8.192-4.096 11.6736l-1.024 7.3728-0.6144 5.5296c-0.2048 4.096-0.2048 7.168 0 10.24l0.6144 5.7344c0.2048 2.8672 0.6144 5.7344 1.4336 8.6016l2.048 6.144c1.8432 5.3248 3.8912 10.24 6.7584 15.1552 1.8432 3.2768 3.8912 6.5536 6.5536 9.8304 2.6624 3.4816 5.7344 6.7584 8.8064 9.8304 2.048 2.6624 4.3008 5.12 7.3728 7.5776L460.5952 720.0768c11.6736 9.4208 23.7568 15.1552 35.84 16.7936 4.096 0.6144 7.7824 0.4096 10.0352 0.2048h1.024c1.6384 0 4.096 0 6.9632-0.6144 21.504-4.3008 45.2608-26.2144 45.2608-74.752v-106.7008c7.7824-0.4096 15.36-1.2288 22.9376-2.4576 201.3184-28.4672 354.7136-262.9632 357.1712-453.4272 0-23.7568-15.1552-35.6352-29.4912-36.6592-7.3728-1.2288-24.3712 0.6144-39.1168 24.576-14.5408 25.8048-31.3344 48.9472-50.3808 69.0176-10.24 10.8544-18.6368 17.8176-27.0336 24.7808l-7.3728 6.3488c-7.5776 5.9392-15.7696 10.8544-23.9616 15.9744l-5.7344 3.6864c-1.8432 1.2288-3.4816 2.2528-5.3248 3.2768-7.5776 4.096-15.36 7.5776-23.3472 11.0592l-6.144 2.8672c-2.8672 1.2288-5.5296 2.6624-8.3968 3.6864-5.9392 2.2528-11.8784 3.8912-17.8176 5.7344l-12.0832 3.6864c-3.4816 1.024-6.9632 2.2528-10.4448 3.072-5.5296 1.2288-11.0592 2.048-16.5888 3.072l-15.1552 2.6624c-3.8912 0.6144-7.5776 1.4336-11.4688 1.8432-14.7456 1.6384-30.1056 2.4576-45.6704 2.4576h-24.9856v-114.8928c0-31.744-14.336-58.368-37.2736-69.4272-7.168-3.6864-14.7456-5.3248-22.528-5.3248zM163.84 373.76l1.024-1.2288c3.072-3.8912 5.12-6.5536 7.3728-8.192l314.5728-252.3136c3.6864-3.072 10.6496-7.5776 15.7696-5.3248 5.7344 2.6624 11.4688 13.5168 11.4688 28.4672v160.3584h70.4512c17.408 0 34.2016-1.024 50.5856-2.8672 5.12-0.6144 10.0352-1.4336 14.9504-2.2528l13.9264-2.4576c6.5536-1.024 13.312-2.048 19.6608-3.6864 4.7104-1.024 9.216-2.4576 13.9264-3.8912l11.264-3.4816c7.168-2.048 14.336-4.3008 21.2992-6.9632 3.8912-1.4336 7.5776-3.2768 11.4688-4.9152l5.3248-2.4576c9.216-4.096 18.432-8.192 27.0336-12.9024 2.8672-1.6384 5.5296-3.2768 8.192-5.12l4.3008-2.6624c9.8304-5.9392 19.2512-11.8784 28.0576-18.6368 2.048-1.4336 4.096-3.2768 6.144-5.12 12.0832-10.0352 21.7088-18.2272 30.72-27.4432l3.072-3.4816c13.5168-14.1312 26.0096-29.696 37.4784-46.4896-22.1184 176.5376-163.4304 345.4976-315.1872 366.7968-11.264 1.6384-22.528 2.4576-33.9968 2.4576h-28.0576v151.552c0 20.0704-5.9392 29.696-9.216 30.3104-4.5056-0.4096-9.216-1.6384-15.9744-7.168L168.3456 425.1648c-1.4336-1.4336-3.2768-3.072-4.5056-4.9152-1.2288-1.4336-2.2528-3.072-3.2768-4.9152-1.2288-2.2528-2.2528-4.5056-3.072-6.7584l-1.4336-4.9152-0.4096-4.7104 0.2048-5.3248 0.4096-5.12 2.048-5.12c2.6624-5.3248 4.096-7.7824 5.5296-9.6256z"  horiz-adv-x="1024" />

    
    <glyph glyph-name="search" unicode="&#58882;" d="M901.013 4.416l-178.731 178.731c60.821 63.296 98.432 149.035 98.432 243.52 0 194.091-157.909 352-352 352s-352-157.909-352-352 157.909-352 352-352c0.075-0 0.163-0 0.251-0 84.567 0 162.134 29.967 222.663 79.861l179.219-180.298c3.853-3.875 9.188-6.273 15.083-6.273s11.229 2.398 15.082 6.272c3.867 3.862 6.258 9.199 6.258 15.094 0 5.895-2.391 11.232-6.257 15.093zM159.403 426.667c0 170.56 138.773 309.333 309.333 309.333s309.333-138.773 309.333-309.333-138.773-309.333-309.333-309.333-309.333 138.773-309.333 309.333z"  horiz-adv-x="1024" />

    
    <glyph glyph-name="shiti" unicode="&#58937;" d="M960 832v-896H64V832h896m0 64H64a64 64 0 0 1-64-64v-896a64 64 0 0 1 64-64h896a64 64 0 0 1 64 64V832a64 64 0 0 1-64 64zM800 640h-192a32 32 0 1 1 0-64h192a32 32 0 1 1 0 64zM800 416h-192a32 32 0 1 1 0-64h192a32 32 0 1 1 0 64zM800 192h-192a32 32 0 1 1 0-64h192a32 32 0 1 1 0 64zM275.2 448a31.872 31.872 0 0 0-22.624 9.376l-115.2 115.232a31.968 31.968 0 1 0 45.248 45.248L275.2 525.248l169.312 169.376a31.968 31.968 0 1 0 45.248-45.248l-191.936-192A32 32 0 0 0 275.2 448zM275.2 64a31.872 31.872 0 0 0-22.624 9.376l-115.2 115.232a31.968 31.968 0 1 0 45.248 45.248L275.2 141.248l169.312 169.376a31.968 31.968 0 1 0 45.248-45.248l-191.936-192A32 32 0 0 0 275.2 64z"  horiz-adv-x="1024" />

    
    <glyph glyph-name="piliangcaozuo" unicode="&#59082;" d="M175.93831 492.027737l0.703996-0.767994 298.621947 298.237949-54.527626 54.399626-244.798317-244.606318-108.927251 108.799252-54.463625-54.399626 162.622882-162.430883 0.767994 0.767994z m268.030158-153.598944H48.00319a35.519756 35.519756 0 0 1-35.455756-35.455756v-395.517281c0-19.583865 15.871891-35.455756 35.455756-35.455756h396.029277a35.455756 35.455756 0 0 1 35.455757 35.519756v395.517281a35.583755 35.583755 0 0 1-35.519756 35.391756z m-40.959719-392.829299H88.962908V264.893299h314.045841v-319.293805z m573.052061 392.829299H580.031532a35.519756 35.519756 0 0 1-35.455756-35.455756v-395.517281a35.519756 35.519756 0 0 1 35.455756-35.455756h396.029278a35.455756 35.455756 0 0 1 35.455756 35.519756v395.517281a35.455756 35.455756 0 0 1-35.455756 35.391756z m-41.023718-392.829299H620.991251V264.893299h314.045841v-319.293805zM976.06081 895.99296H580.031532a35.391757 35.391757 0 0 1-35.391756-35.391757v-395.58128c0-19.519866 15.871891-35.391757 35.455756-35.391757h396.029277a35.455756 35.455756 0 0 1 35.455756 35.391757V860.601203A35.519756 35.519756 0 0 1 976.06081 895.99296z m-41.023718-392.7653H620.991251V822.457466h314.045841v-319.229806z"  horiz-adv-x="1024" />

    
    <glyph glyph-name="yingxiaohuodong_yijieshu" unicode="&#59223;" d="M512 825.86906337c-244.0884706 0-441.86906337-197.78059277-441.86906337-441.86906337s197.78059277-441.86906337 441.86906337-441.86906337 441.86906337 197.78059277 441.86906337 441.86906337-197.78059277 441.86906337-441.86906337 441.86906337z m236.13482747-441.86906337c0-30.57733919-24.74466755-55.32200673-55.32200674-55.32200673H331.01043164c-30.57733919 0-55.32200673 24.74466755-55.32200673 55.32200673s24.74466755 55.32200673 55.32200673 55.32200673h361.80238909c30.57733919 0 55.32200673-24.74466755 55.32200674-55.32200673z"  horiz-adv-x="1024" />

    
    <glyph glyph-name="iconfont-kaoshi" unicode="&#58888;" d="M1020.121 169.223v624.752s-8.154 0.17-18.21 0.17h-624.341c-10.056 0-18.21-0.17-18.21-0.17v-816.038s43.179-0.64 96.254-0.64h553.957c53.073 0 96.254 43.179 96.254 96.254-0.003 49.507-37.576 90.4-85.704 95.672zM869.721 464.622h-364.197c-10.056 0-18.21 8.154-18.21 18.212s8.152 18.21 18.21 18.21h364.199c10.056 0 18.212-8.152 18.212-18.21s-8.155-18.212-18.213-18.212zM887.932 381.378c0-10.056-8.154-18.21-18.212-18.21h-364.197c-10.056 0-18.21 8.152-18.21 18.21s8.152 18.21 18.21 18.21h364.199c10.056 0 18.21-8.152 18.21-18.21zM869.721 566.080h-364.197c-10.056 0-18.21 8.154-18.21 18.21s8.152 18.21 18.21 18.21h364.199c10.056 0 18.212-8.152 18.212-18.21-0.002-10.056-8.155-18.21-18.213-18.21zM1009.569 13.717l-478.497 0.148c0.71 0.896 1.404 1.806 2.081 2.727 0.136 0.182 0.268 0.366 0.403 0.549 0.674 0.931 1.337 1.87 1.98 2.825l0.253 0.385c0.612 0.92 1.211 1.851 1.792 2.794 0.076 0.122 0.155 0.244 0.229 0.366 5.754 9.274 10.019 20.123 12.138 31.722-9.499-27.128-8.964-26.125-8.45-25.112l0.28 0.566c0.513 1.025 1.010 2.057 1.486 3.103l0.074 0.158c0.487 1.073 0.948 2.161 1.395 3.255l0.256 0.628c0.427 1.061 0.833 2.13 1.221 3.208 0.079 0.22 0.155 0.442 0.232 0.662 0.392 1.113 0.769 2.231 1.118 3.363l0.086 0.289c0.337 1.096 0.652 2.2 0.95 3.313 0.048 0.179 0.098 0.353 0.144 0.532 1.666 6.131 2.749 13.225 3.006 20.53-1.781-15.25-1.549-14.081-1.341-12.904 0.029 0.158 0.052 0.318 0.079 0.478 0.2 1.161 0.378 2.331 0.533 3.506l0.045 0.32c0.157 1.214 0.286 2.438 0.396 3.664l0.060 0.664c0.101 1.209 0.181 2.424 0.236 3.645 0.010 0.2 0.015 0.399 0.024 0.599 0.050 1.276 0.083 2.556 0.083 3.845 0 1.288-0.033 2.567-0.083 3.843-0.009 0.2-0.014 0.399-0.024 0.599-0.207 4.433-0.672 8.576-1.386 12.633l0.649-4.342c-0.729 5.422-1.788 10.235-3.2 14.895l2.588-10.909c-1.21 6.747-2.933 12.709-5.193 18.398 2.669-6.699 0.362-0.111-2.599 6.104l5.983-16.348c-2.31 8.516-5.407 15.954-9.32 22.868l8.284-19.264c-2.816 8.891-6.547 16.624-11.205 23.692l9.853-19.671c-3.343 9.174-7.714 17.115-13.102 24.245l11.624-20.41c-4.070 9.87-9.332 18.374-15.743 25.864 14.322-22.551 14.298-22.506 14.278-22.458-5.076 10.945-11.554 20.326-19.352 28.427 17.763-25.112 17.675-24.93 17.582-24.747-5.485 10.647-12.426 19.721-20.695 27.38l18.749-23.751c-5.916 10.426-13.347 19.255-22.113 26.53 20.292-23.42 20.218-23.31 20.149-23.195-6.539 10.496-14.68 19.327-24.189 26.426l22.137-23.235c-7.364 10.814-16.463 19.845-26.99 26.912l24.613-23.541c-7.626 10.295-16.987 18.826-27.723 25.309 25.588-22.515 25.555-22.467 25.519-22.421h478.611c32.992 0 59.832-26.842 59.832-59.832 0.005-32.987-26.835-59.829-59.827-59.829z"  horiz-adv-x="1448" />

    
    <glyph glyph-name="gengduo" unicode="&#59093;" d="M127.664-35.056c-24.112 0-37.344 29.776-20.336 46.816l369.68 369.664L113.008 744.496c-10.4 12.304-9.936 28.352 0 39.712 10.4 10.4 29.312 10.4 39.712 0l382.432-383.392c11.36-11.344 10.4-28.368 0-38.784L147.04-27.024a27.92 27.92 0 0 0-19.376-8.032zM508.672-35.056c-24.096 0-37.328 29.776-20.32 46.816l369.68 369.664-364 363.072c-10.4 12.304-9.936 28.352 0 39.712 10.4 10.4 29.312 10.4 39.712 0l382.432-383.392c11.344-11.344 10.4-28.368 0-38.784L528.08-27.024a27.968 27.968 0 0 0-19.408-8.032z"  horiz-adv-x="1024" />

    
    <glyph glyph-name="shijuan" unicode="&#58881;" d="M334.228 637.666c0-18.668-15.111-33.799-33.78-33.799-18.649 0-33.78 15.132-33.78 33.799 0 18.629 15.132 33.761 33.78 33.761 18.668 0.007 33.78-15.132 33.78-33.761zM334.228 513.786c0-18.678-15.111-33.761-33.78-33.761-18.649 0-33.78 15.091-33.78 33.761 0 18.649 15.132 33.761 33.78 33.761 18.668 0 33.78-15.122 33.78-33.761zM266.667 389.892c0 0 0 0 0 0 0-18.656 15.124-33.78 33.78-33.78 18.656 0 33.78 15.124 33.78 33.78 0 0 0 0 0 0 0 0 0 0 0 0 0 18.656-15.124 33.78-33.78 33.78-18.656 0-33.78-15.124-33.78-33.78s0 0 0 0zM639.709 607.148h-226.653c-16.821 0-30.492 13.651-30.492 30.522 0 16.831 13.671 30.481 30.492 30.481h226.653c16.85 0 30.492-13.651 30.492-30.481 0.012-16.871-13.632-30.522-30.492-30.522zM639.709 483.254h-226.653c-16.821 0-30.492 13.671-30.492 30.522s13.671 30.522 30.492 30.522h226.653c16.85 0 30.492-13.671 30.492-30.522s-13.632-30.522-30.492-30.522zM639.709 359.38h-226.653c-16.821 0-30.492 13.671-30.492 30.5 0 16.88 13.671 30.522 30.492 30.522h226.653c16.85 0 30.492-13.639 30.492-30.522 0.012-16.831-13.632-30.5-30.492-30.5zM266.667 273.708c0 0 0 0 0 0 0-18.656 15.124-33.78 33.78-33.78 18.656 0 33.78 15.124 33.78 33.78 0 0 0 0 0 0 0 0 0 0 0 0 0 18.656-15.124 33.78-33.78 33.78-18.656 0-33.78-15.124-33.78-33.78s0 0 0 0zM639.709 243.186h-226.653c-16.821 0-30.492 13.659-30.492 30.522 0 16.85 13.671 30.492 30.492 30.492h226.653c16.85 0 30.492-13.642 30.492-30.492 0.012-16.86-13.632-30.522-30.492-30.522zM959.089 653.734c0 110.203-40.694 150.898-90.928 150.898h-618.434c-51.653 0-93.711-42.016-93.711-93.719v-589.145h-91.107c0-137.594 50.779-158.399 113.482-158.399h542.489c51.694 0 93.73 42.016 93.73 93.719v596.646h144.479zM777.104 57.099c0-30.998-25.215-56.223-56.223-56.223-50.193 0-75.886 10.71-75.886 120.913h-451.47v589.136c0 30.998 25.174 56.223 56.195 56.223h552.125c-14.863-23.556-24.123-59.215-24.529-110.102-0.119-1.142-0.219-2.286-0.219-3.309v-596.636h0.007z"  horiz-adv-x="1024" />

    
    <glyph glyph-name="wancheng" unicode="&#59091;" d="M512 832C262.4 832 64 633.6 64 384s198.4-448 448-448 448 198.4 448 448-198.4 448-448 448z m236.8-345.6l-281.6-281.6c-12.8-12.8-32-12.8-44.8 0L275.2 345.6c-12.8 12.8-12.8 32 0 44.8 12.8 12.8 32 12.8 44.8 0l121.6-121.6 256 256c12.8 12.8 32 12.8 44.8 0 19.2-6.4 19.2-32 6.4-38.4z"  horiz-adv-x="1024" />

    
    <glyph glyph-name="shoucang" unicode="&#58918;" d="M269.8-43.87a35.33 35.33 0 0 0-34.6 41.2l45.4 264.8-192.4 187.6a35.1 35.1 0 0 0 19.5 59.9l265.9 38.6 118.9 241a35.11 35.11 0 0 0 63 0l118.9-241 265.9-38.6a35.1 35.1 0 0 0 19.5-59.9l-192.4-187.6 45.4-264.9a35.18 35.18 0 0 0-51-37.1l-237.8 125-237.9-125a36.32 36.32 0 0 0-16.3-4zM524 136.43a23.54 23.54 0 0 0 11.2-2.8l226-118.8-43.2 251.6a23.87 23.87 0 0 0 6.9 21.2l182.8 178.2-252.7 36.7a23.93 23.93 0 0 0-18.1 13.1l-113 229-113-229a23.93 23.93 0 0 0-18.1-13.1l-252.7-36.7 182.8-178.2a24 24 0 0 0 6.9-21.2l-43.2-251.6 226 118.8a26.24 26.24 0 0 0 11.4 2.8zM512.5 768z"  horiz-adv-x="1024" />

    
    <glyph glyph-name="yulan" unicode="&#59152;" d="M572.416 1.536H168.96c-4.608 0-8.704 2.048-11.776 5.632-3.584 3.584-5.12 7.68-5.12 12.288V748.544c0 2.56 0.512 4.608 1.536 6.656 1.024 2.048 2.56 4.096 4.096 5.632s3.584 3.072 5.632 4.096c2.048 1.024 4.096 1.536 6.144 1.536h683.008c4.608 0 8.192-2.048 11.776-5.632 3.584-3.584 5.12-7.68 5.12-12.288v-428.032c0-13.824 11.264-25.6 25.6-25.6s25.6 11.264 25.6 25.6v429.056c0 18.432-6.656 34.304-19.968 47.616-13.312 13.312-29.696 19.968-48.128 19.968h-684.032c-8.704 0-17.408-2.048-26.112-5.632s-15.872-8.704-22.016-14.848c-6.144-6.144-10.752-13.312-14.336-21.504-3.584-8.192-5.632-16.896-5.632-26.112V17.92c0-18.944 6.656-34.816 19.968-48.128 13.312-12.8 29.696-19.456 48.128-19.456h403.968c13.824 0 25.6 11.264 25.6 25.6s-11.776 25.6-25.6 25.6zM776.704 624.128c0 14.336-11.264 25.6-25.6 25.6h-481.28c-14.336 0-25.6-11.264-25.6-25.6s11.264-25.6 25.6-25.6h481.28c14.336 0 25.6 11.264 25.6 25.6zM448.512 464.896c0 14.336-11.264 25.6-25.6 25.6h-153.088c-14.336 0-25.6-11.264-25.6-25.6s11.264-25.6 25.6-25.6h153.088c13.824 0 25.6 11.264 25.6 25.6zM269.824 330.752c-14.336 0-25.6-11.264-25.6-25.6s11.264-25.6 25.6-25.6h71.168c14.336 0 25.6 11.264 25.6 25.6s-11.264 25.6-25.6 25.6h-71.168zM915.968-3.584l-122.368 119.296c27.648 34.816 44.032 78.848 44.032 126.976 0 113.152-91.648 204.8-204.8 204.8s-204.8-91.648-204.8-204.8 91.648-204.8 204.8-204.8c46.592 0 89.6 15.872 123.904 41.984l123.392-120.32c10.24-9.728 26.112-9.216 36.352 0.512 9.728 10.24 9.728 26.624-0.512 36.352z m-283.136 92.672c-84.48 0-153.6 69.12-153.6 153.6s69.12 153.6 153.6 153.6 153.6-69.12 153.6-153.6-68.608-153.6-153.6-153.6z"  horiz-adv-x="1024" />

    
    <glyph glyph-name="exam" unicode="&#58883;" d="M732.16 418.816c-133.632 0-242.176-108.544-242.176-242.176s108.544-242.688 242.176-242.688 242.688 108.544 242.688 242.176-108.544 242.688-242.688 242.688zM732.16-20.48c-109.056 0-197.12 88.064-197.12 197.12s88.064 197.12 197.12 197.12 197.12-88.064 197.12-197.12-88.064-197.12-197.12-197.12zM846.336 133.632h-142.848c-7.68 0-14.336 6.144-14.336 14.336v142.848c0 7.68 6.144 14.336 14.336 14.336h18.432c7.68 0 14.336-6.144 14.336-14.336v-110.080h110.080c7.68 0 14.336-6.144 14.336-14.336v-18.432c0-7.68-6.656-14.336-14.336-14.336zM261.632 217.6v-18.432c0-7.68 6.144-14.336 14.336-14.336h114.176c7.68 0 14.336 6.144 14.336 14.336v18.432c0 7.68-6.144 14.336-14.336 14.336h-114.176c-7.68 0-14.336-6.656-14.336-14.336zM475.648 431.616h-199.68c-7.68 0-14.336-6.144-14.336-14.336v-18.432c0-7.68 6.144-14.336 14.336-14.336h199.68c7.68 0 14.336 6.144 14.336 14.336v18.432c0 7.68-6.656 14.336-14.336 14.336zM704 631.296h-428.032c-7.68 0-14.336-6.144-14.336-14.336v-18.432c0-7.68 6.144-14.336 14.336-14.336h428.032c7.68 0 14.336 6.144 14.336 14.336v18.432c-0.512 7.68-6.656 14.336-14.336 14.336zM888.832 520.192v193.024c0 66.048-58.368 120.32-120.32 120.32h-586.24c-57.856 0-120.32-54.784-120.32-120.32v-608.256c0-56.832 60.928-120.32 120.32-120.32h249.856c12.288 0.512 22.016 10.24 22.016 22.528s-9.728 22.528-22.016 22.528h-247.808c-31.232 1.024-75.776 35.84-76.8 77.824v600.064c0.512 43.008 36.352 77.824 74.24 79.36h588.8c40.448-0.512 72.192-40.96 72.704-75.264v-191.488h0.512c0-1.024-0.512-1.536-0.512-2.56 0-12.8 10.24-23.040 23.040-23.040s23.040 10.24 23.040 23.040c0 1.024-0.512 2.048-0.512 2.56z"  horiz-adv-x="1024" />

    
    <glyph glyph-name="tongji" unicode="&#58898;" d="M85.333333 0h170.666667c21.333333 0 42.666667 21.333333 42.666667 42.666667V597.333333c0 21.333333-21.333333 42.666667-42.666667 42.666667H85.333333c-21.333333 0-42.666667-21.333333-42.666666-42.666667v-554.666666c0-21.333333 21.333333-42.666667 42.666666-42.666667zM85.333333 597.333333h170.666667v-554.666666H85.333333V597.333333zM426.666667 0h170.666666c21.333333 0 42.666667 21.333333 42.666667 42.666667V469.333333c0 21.333333-21.333333 42.666667-42.666667 42.666667h-170.666666c-21.333333 0-42.666667-21.333333-42.666667-42.666667v-426.666666c0-21.333333 21.333333-42.666667 42.666667-42.666667z m0 469.333333h170.666666v-426.666666h-170.666666V469.333333zM768 0h170.666667c21.333333 0 42.666667 21.333333 42.666666 42.666667V853.333333c0 21.333333-21.333333 42.666667-42.666666 42.666667h-170.666667c-21.333333 0-42.666667-21.333333-42.666667-42.666667v-810.666666c0-21.333333 21.333333-42.666667 42.666667-42.666667z m0 853.333333h170.666667v-810.666666h-170.666667V853.333333zM0-85.333333h1024v-42.666667H0z"  horiz-adv-x="1024" />

    
    <glyph glyph-name="b2" unicode="&#58949;" d="M291.894 314.924h441.62c6.4 0 11.621-5.201 11.621-11.625v-46.483c0-6.427-5.221-11.625-11.621-11.625l-441.62-0c-6.423 0-11.623 5.199-11.623 11.625v46.483c0 6.425 5.199 11.625 11.623 11.625zM291.894 152.22h441.62c6.4 0 11.621-5.197 11.621-11.621v-46.487c0-6.425-5.221-11.623-11.621-11.623l-441.62 0c-6.423 0-11.623 5.199-11.623 11.623v46.487c0 6.425 5.199 11.621 11.623 11.621zM884.589 59.248c0-44.172-0.090-61.888 0-92.975-32.581 0.002-44.26 0-92.969 0h-557.836c-57.449 0-92.973 0-92.973 0 0 13.529 0 45.285 0 92.975l0 650.807c0 40.654 0 73.022 0 92.971 16.959-0.037 40.39 0 92.973 0h464.867l69.723 92.973h-627.561c-51.343 0-92.971-41.628-92.971-92.973v-836.754c0-51.341 41.628-92.971 92.971-92.971h743.776c51.346 0 92.977 41.63 92.977 92.971l0 674.051-92.977-69.727-0-511.349zM845.755 851.783c6.515 8.035 16.955 21.020 22.948 27.602 15.121 16.615 37.545 13.916 50.508 9.443 13.907-4.789 35.179-22.065 45.736-40.224 6.423-11.077 12.62-29.689 0.313-46.307-12.252-16.613-21.198-27.69-21.198-27.69l-98.307 77.175zM815.544 811.928c0 0-170.056-225.282-182.269-242.237-6.989-9.716-10.191-17.067-13.072-26.488-3.77-12.26-13.756-71.137-14.167-89.115-0.36-16.977 5.246-22.946 21.564-18.68 15.934 4.153 69.23 29.779 85.845 40.926 7.97 5.334 15.848 13.189 21.065 19.863 8.22 10.508 179.297 238.537 179.297 238.537l-98.262 77.195z"  horiz-adv-x="1024" />

    
    <glyph glyph-name="fenxi" unicode="&#58961;" d="M915.34625-37.47000000000003h-188.3925c-9.72 0-17.685 7.02-17.685 15.62625V479.34375c0 8.64 7.965 15.62625 17.685 15.62625h188.3925c9.7875 0 17.685-6.98625 17.685-15.62625v-501.1875c0-8.60625-7.86375-15.62625-17.685-15.62625z m-170.74125 31.28625h153.09V463.68375h-153.09V-6.149999999999977zM606.1625-37.47000000000003H417.80375c-9.72 0-17.65125 7.02-17.65125 15.62625v286.74c0 8.64 7.93125 15.62625 17.65125 15.62625h188.42625c9.7875 0 17.65125-6.98625 17.65125-15.62625v-286.74c0-8.60625-7.86375-15.62625-17.65125-15.62625z m-170.7075 31.28625h153.05625v255.45375h-153.05625v-255.45375zM297.0125-37.47000000000003H108.5525c-9.72 0-17.65125 7.02-17.65125 15.62625v131.1525c0 8.60625 7.93125 15.62625 17.65125 15.62625H297.0125c9.82125 0 17.685-7.02 17.685-15.62625v-131.1525c0-8.60625-7.86375-15.62625-17.685-15.62625zM126.2375-6.149999999999977h153.05625v99.8325H126.27125v-99.8325zM676.0925 531.72375a18.8325 18.8325 0 0 0-12.4875 4.59 14.3775 14.3775 0 0 0 0 22.10625l124.2 109.99125-124.2 110.025a14.41125 14.41125 0 0 0 0 22.10625 19.40625 19.40625 0 0 0 24.975 0l136.62-121.06125a14.3775 14.3775 0 0 0 0-22.14l-136.62-121.06125a18.765 18.765 0 0 0-12.4875-4.55625zM211.2875 245.89499999999998a20.14875 20.14875 0 0 0-3.375 0.27c-9.585 1.65375-15.8625 9.855-14.00625 18.32625C246.995 507.525 486.85625 684.0375 764.1125 684.0375c9.7875 0 17.65125-6.98625 17.65125-15.62625s-7.83-15.66-17.65125-15.66c-260.415 0-485.6625-165.78-535.545-394.2-1.6875-7.45875-9.045-12.65625-17.3475-12.65625z"  horiz-adv-x="1024" />

    
    <glyph glyph-name="shijian" unicode="&#58931;" d="M585.142857 749.714286C365.714286 749.714286 182.857143 566.857143 182.857143 347.428571S365.714286-54.857143 585.142857-54.857143s402.285714 182.857143 402.285714 402.285714S804.571429 749.714286 585.142857 749.714286z m0-731.428572c-175.542857 0-321.828571 146.285714-321.828571 329.142857S409.6 676.571429 585.142857 676.571429s321.828571-146.285714 321.828572-329.142858S760.685714 18.285714 585.142857 18.285714zM775.314286 340.114286H614.4V537.6c0 14.628571-14.628571 29.257143-29.257143 29.257143s-29.257143-14.628571-29.257143-29.257143V310.857143c0-14.628571 14.628571-29.257143 29.257143-29.257143h190.171429c14.628571 0 29.257143 14.628571 29.257143 29.257143s-7.314286 29.257143-29.257143 29.257143zM343.771429 786.285714c0 14.628571-14.628571 36.571429-36.571429 36.571429-7.314286 0-21.942857-7.314286-21.942857-7.314286C190.171429 764.342857 109.714286 676.571429 73.142857 574.171429v-14.628572c0-51.2 65.828571-58.514286 80.457143-14.628571 21.942857 95.085714 87.771429 160.914286 168.228571 204.8 14.628571 7.314286 21.942857 21.942857 21.942858 36.571428zM826.514286 778.971429c0 21.942857 14.628571 36.571429 36.571428 36.571428 7.314286 0 21.942857-7.314286 21.942857-7.314286 95.085714-51.2 182.857143-138.971429 212.114286-241.371428v-14.628572c0-21.942857-14.628571-36.571429-36.571428-36.571428-14.628571 0-29.257143 7.314286-36.571429 29.257143-29.257143 95.085714-95.085714 160.914286-175.542857 204.8-7.314286 0-21.942857 14.628571-21.942857 29.257143z"  horiz-adv-x="1170" />

    
    <glyph glyph-name="jiantou" unicode="&#58880;" d="M512.004 159.531l416.859 448.939h-833.724l416.865-448.939z"  horiz-adv-x="1024" />

    
    <glyph glyph-name="dengdai2" unicode="&#58927;" d="M506.44516133 834C263.46451573 834 62 632.53548427 62 378.44516133 62 135.46451573000002 263.46451573-66 506.44516133-66 760.53548427-66 962 135.46451573000002 962 378.44516133 962 632.53548427 760.53548427 834 506.44516133 834z m203.93225771-619.97419336l-14.61290273-25.30645137a5.26451572 5.26451572 0 0 0-6.75483926-2.02258124L461.69677461 295.14193565000005a9.52258096 9.52258096 0 0 0-3.95806464 3.48387099 9.11612901 9.11612901 0 0 0-3.80322599 7.85806435l13.92580635 343.69354864a4.99354805 4.99354805 0 0 0 5.01290332 4.79032207h38.75806406c2.66129033 0 4.90645195-2.09999971 5.01290333-4.79032207L529.12903203 342.38709638l179.62258096-121.53870966a5.19677402 5.19677402 0 0 0 1.62580605-6.82258008z"  horiz-adv-x="1024" />

    
    <glyph glyph-name="guanbi1" unicode="&#58958;" d="M834.661 173.337l-272.724 272.721 271.115 271.123c10.207 10.189 10.207 26.719 0 36.906-10.189 10.189-26.704 10.189-36.909 0l-271.117-271.117-272.127 272.128c-10.255 10.255-26.873 10.255-37.125 0-10.255-10.255-10.255-26.891 0-37.132l272.127-272.124-269.994-269.994c-10.189-10.189-10.189-26.719 0-36.925 10.207-10.187 26.719-10.187 36.909 0l269.995 270.004 272.723-272.721c10.254-10.255 26.87-10.255 37.132 0 10.253 10.254 10.253 26.868 0 37.132z"  horiz-adv-x="1024" />

    
    <glyph glyph-name="piliangxiugaihuxing" unicode="&#58926;" d="M750.1 831.8h-380.9v-0.5l-154.7-154.4v-51.5l-102.6-102.4v-584.2h535.6v153.9h102.6v739.1zM585.9 0.3h-412.5v461.1h41v-368.7h371.4v-92.4zM688.6 154.3h-412.5v461h154.7v154.9h257.8v-615.9zM934.9 629.9l-126.1 126.1-338.3-338.4-60.7-186.7 186.8 60.7 338.3 338.3zM454.9 276l41 126.1 85.1-85.1-126.1-41z"  horiz-adv-x="1024" />

    
    <glyph glyph-name="tongjixinxi" unicode="&#58954;" d="M136.7 406.6v331.2c0 8.5 4.4 15.4 11.6 18.2 7.6 2.9 16.7 1 21.8-5.4 2.2-2.8 3-6.7 4.2-10.1 0.4-1.1 0.1-2.4 0.1-3.6v-653.8c0-19.9 17.3-38 37.8-38 218.3 0.1 436.7 0.1 655 0.1 8.8 0 15.8-3.2 18.9-11.7 4.5-12.2-2-25.3-16-25.7-29.3-0.8-58.6-1-87.9-1-189.6-0.1-379.2-0.1-568.8 0.1-18.8 0-36 5.5-50.6 18.2-17 14.8-26.1 33.2-26.1 56 0.1 108.4 0 217 0 325.5zM554.9 498.7l29.1 27.6c15.5 14.6 31 29.1 46.5 43.7 8.9 8.3 17.8 16.5 26.7 24.8 9.8 9.1 19.5 18.3 29.3 27.4 1.1 1 2.1 2.1 3.8 3.9-10.2 0-19.6 0.1-29 0-9-0.1-17 7.1-17.9 17.3-0.7 8.5 4.3 17.2 14.1 19.4 2.3 0.5 4.7 0.9 7.1 0.9 17.6 0.1 35.2 0.1 52.7 0 20.4-0.1 34.1-11.8 38.6-31 0.3-1.3 0.1-2.7 0.1-4.1v-59.1c0-10.4-7.8-18.4-18-18.5-11.1-0.1-19.4 8.3-19.6 18.6-0.2 9.3-0.1 18.6-0.1 27.9 0 0.1-0.1 0.3-0.3 0.8-2.6-2.1-5.2-4-7.5-6.2-8.5-8.1-16.9-16.3-25.4-24.3-15.1-14.3-30.3-28.5-45.5-42.7-9.6-9-19.3-18-28.9-27.1-10.5-9.9-20.7-20.1-31.6-29.6-12.4-10.7-29.9-12.1-43.5-3.4-6.9 4.5-12.9 10.4-19 16-8.3 7.6-16.2 15.7-24.4 23.3-13.3 12.4-26.7 24.7-40.2 37.1-4-3.5-8.1-7-12-10.7-8.2-7.7-16.2-15.7-24.4-23.4-14.9-14.1-29.9-28.1-44.9-42.1-9.5-8.9-19.2-17.8-28.6-26.8-10.8-10.3-21.1-21.2-32.3-31-5.4-4.8-9.6-11.3-17.3-13.5-11.2-3.2-24.6 4.4-24.6 17.5 0 7.8 3.2 13.2 9.1 18 4.6 3.7 8.1 8.6 12.3 12.8 8 7.9 16.2 15.6 24.4 23.3 5.2 4.9 10.6 9.5 15.8 14.3 7.3 6.9 14.5 13.9 21.8 20.8 14.5 13.6 29 27.2 43.6 40.8 8.7 8.1 17.4 16 26 24.2 8.7 8.3 18.7 13.6 30.9 13.6 11.7 0 21.6-4.5 30-12.4 13.2-12.4 26.2-25 39.3-37.4 9.6-9.1 19.3-18.1 29-27.1 1.3-1.2 3-2.2 4.8-3.6zM456 260.9v-103c0-9.8-6.1-17.7-16.1-19.1-9.2-1.3-17.9 3.1-21 13.6-0.5 1.6-0.5 3.3-0.5 4.9v207.4c0 10.8 7.9 18.7 18.8 18.6 10.4-0.1 18.7-8.2 18.7-18.9 0.1-34.5 0.1-69 0.1-103.5zM756 260.5v-103.5c0-10.2-7.8-18.2-17.7-18.4-11.5-0.2-19.9 8.1-19.9 18.2-0.1 69.4-0.1 138.9 0 208.3 0 10.2 8.3 18.1 19 18.1s18.5-7.8 18.6-18.4v-104.3zM305.6 213.9c0-18.8-0.3-37.6 0.1-56.3 0.2-11.6-9.6-18.6-17.2-19-10.5-0.7-20.4 7.4-20.5 18.4-0.2 37.9-0.3 75.7 0 113.6 0.1 10.8 8.9 18.6 19 18.2 10.3-0.4 18.6-7.1 18.5-19-0.1-18.6 0.1-37.3 0.1-55.9zM568.8 214.3v56.3c0 9.3 4.5 14.7 14.6 17.8 6.3 1.9 15.8-1.4 19.2-7.7 2.1-3.9 3.7-8.7 3.7-13 0.3-36 0.3-72 0.1-108-0.1-14.1-9.4-21.7-21-21-9.5 0.6-16.8 9.9-16.7 17.1 0.4 19.4 0.1 38.9 0.1 58.5z"  horiz-adv-x="1024" />

    
    <glyph glyph-name="shangchuan" unicode="&#58970;" d="M876.8 260.6c-11.8 0-21.5-9.6-21.5-21.4v-214.5h-708V239.1c0 11.9-9.6 21.4-21.5 21.4-11.8 0-21.5-9.6-21.5-21.4v-236c0-11.9 9.6-21.5 21.5-21.5h750.9c11.8 0 21.5 9.6 21.5 21.5v236c0.1 11.9-9.5 21.5-21.4 21.5zM281.4 524l200.3 200.3v-549.5c0-11.8 9.6-21.5 21.5-21.5s21.5 9.6 21.5 21.5V724.2L724.8 524c8.2-8.2 21.4-8.2 29.6 0 8.2 8.2 8.2 21.4 0 29.6L521.7 786.4c-0.9 1.5-2 3-3.3 4.3-2.1 2.1-4.4 3.6-7 4.6-2.6 1.1-5.4 1.7-8.4 1.7s-5.8-0.6-8.4-1.7c-2.5-1-4.9-2.6-7-4.6-1.3-1.3-2.4-2.8-3.3-4.3L251.8 553.6c-8.2-8.2-8.2-21.4 0-29.6 8.1-8.2 21.4-8.2 29.6 0z"  horiz-adv-x="1024" />

    
    <glyph glyph-name="bianji" unicode="&#58975;" d="M698.924589 807.940135c17.636299 17.514669 46.705785 17.028151 65.193491-1.581185l100.22283-100.222829c18.487706-18.487706 19.217484-47.557192 1.581185-65.193491L372.592246 147.61278100000004c-8.757335-8.757335-25.542226-18.487706-37.82682-21.893337L175.673847 82.17602999999997c-24.2043-6.689631-38.921487 7.905927-32.718375 32.110227l41.23245 162.497209c3.040741 12.162965 12.771113 29.191115 21.528448 37.82682L698.924589 807.940135zM239.042893 281.16213300000004c-3.162371-3.162371-9.000594-13.379261-10.09526-17.757928L196.594146 136.30122300000005l123.940611 33.813042c4.865186 1.337926 15.082076 7.297779 18.609336 10.825039l493.329849 493.329849-100.222829 100.222829L239.042893 281.16213300000004z m458.422141 458.422141l100.222829-100.22283-33.448153-33.448153-100.222829 100.22283 33.448153 33.448153zM296.573716 338.81458599999996l100.22283-100.222829-33.448153-33.448153-100.22283 100.222829 33.448153 33.448153z"  horiz-adv-x="1024" />

    
    <glyph glyph-name="xinjian" unicode="&#59036;" d="M843.4176 614.90688h-322.67776L454.59456 713.89184a30.72 30.72 0 0 1-25.54368 13.65504H180.58752c-30.00832 0-54.42048-24.41728-54.42048-54.42048v-593.6128c0-30.0032 24.41216-54.41536 54.42048-54.41536H843.4176c29.99808 0 54.41024 24.41216 54.41024 54.41536V560.4864c0 30.00832-24.40704 54.42048-54.41024 54.42048z m-7.02976-528.37376H187.61216V666.10688h225.01888l66.14528-98.98496a30.72 30.72 0 0 1 25.54368-13.65504h332.06784v-466.93376zM481.28 433.49504v-88.69376H385.46944a30.72 30.72 0 0 1 0-61.44H481.28v-88.64256a30.72 30.72 0 0 1 61.44 0v88.64256h95.81056a30.72 30.72 0 0 1 0 61.44H542.72V433.49504a30.72 30.72 0 0 1-61.44 0z"  horiz-adv-x="1024" />

    
    <glyph glyph-name="timu" unicode="&#58886;" d="M128 426.667h298.667c25.6 0 42.667 17.067 42.667 42.667v298.667c0 25.6-17.067 42.667-42.667 42.667h-298.667c-25.6 0-42.667-17.067-42.667-42.667v-298.667c0-25.6 17.067-42.667 42.667-42.667zM128 725.333c0 25.6 17.067 42.667 42.667 42.667h213.333c25.6 0 42.667-17.067 42.667-42.667v-213.333c0-25.6-17.067-42.667-42.667-42.667h-213.333c-25.6 0-42.667 17.067-42.667 42.667v213.333zM896 810.667h-298.667c-25.6 0-42.667-17.067-42.667-42.667v-298.667c0-25.6 17.067-42.667 42.667-42.667h298.667c25.6 0 42.667 17.067 42.667 42.667v298.667c0 25.6-17.067 42.667-42.667 42.667zM896 512c0-25.6-17.067-42.667-42.667-42.667h-213.333c-25.6 0-42.667 17.067-42.667 42.667v213.333c0 25.6 17.067 42.667 42.667 42.667h213.333c25.6 0 42.667-17.067 42.667-42.667v-213.333zM426.667 341.333h-298.667c-25.6 0-42.667-17.067-42.667-42.667v-298.667c0-25.6 17.067-42.667 42.667-42.667h298.667c25.6 0 42.667 17.067 42.667 42.667v298.667c0 25.6-17.067 42.667-42.667 42.667zM426.667 42.667c0-25.6-17.067-42.667-42.667-42.667h-213.333c-25.6 0-42.667 17.067-42.667 42.667v213.333c0 25.6 17.067 42.667 42.667 42.667h213.333c25.6 0 42.667-17.067 42.667-42.667v-213.333zM896 341.333h-298.667c-25.6 0-42.667-17.067-42.667-42.667v-298.667c0-25.6 17.067-42.667 42.667-42.667h298.667c25.6 0 42.667 17.067 42.667 42.667v298.667c0 25.6-17.067 42.667-42.667 42.667zM896 42.667c0-25.6-17.067-42.667-42.667-42.667h-213.333c-25.6 0-42.667 17.067-42.667 42.667v213.333c0 25.6 17.067 42.667 42.667 42.667h213.333c25.6 0 42.667-17.067 42.667-42.667v-213.333z"  horiz-adv-x="1024" />

    
    <glyph glyph-name="shijian1" unicode="&#58923;" d="M512-102.4a486.4 486.4 0 1 0 0 972.8 486.4 486.4 0 0 0 0-972.8z m0 51.2a435.2 435.2 0 1 1 0 870.4 435.2 435.2 0 0 1 0-870.4zM512 358.4v307.2a25.6 25.6 0 0 1-51.2 0v-307.2a25.6 25.6 0 1 1 51.2 0zM486.4 332.8h307.2a25.6 25.6 0 1 1 0 51.2h-307.2a25.6 25.6 0 1 1 0-51.2z"  horiz-adv-x="1024" />

    
    <glyph glyph-name="xinjian1" unicode="&#58890;" d="M512 896C229.376 896 0 666.624 0 384s229.376-512 512-512 512 229.376 512 512S794.624 896 512 896z m243.2-550.4h-204.8v-204.8c0-20.992-17.408-38.4-38.4-38.4s-38.4 17.408-38.4 38.4v204.8h-204.8c-20.992 0-38.4 17.408-38.4 38.4s17.408 38.4 38.4 38.4h204.8v204.8c0 20.992 17.408 38.4 38.4 38.4s38.4-17.408 38.4-38.4v-204.8h204.8c20.992 0 38.4-17.408 38.4-38.4s-17.408-38.4-38.4-38.4z"  horiz-adv-x="1029" />

    
    <glyph glyph-name="weizhi" unicode="&#58894;" d="M521.3696 52.6336a53.76 53.76 0 0 0-45.4656 33.536c-140.1088 264.9856-141.1328 267.648-141.4912 268.672a224 224 0 0 0 187.1104 337.3312 220.9024 220.9024 0 0 0 217.984-223.2064 226.6112 226.6112 0 0 0-32.8448-117.76s-7.68-15.1552-139.8784-264.96a53.76 53.76 0 0 0-45.4144-33.6128z m0.1536 613.7088a195.328 195.328 0 0 1-192.7424-197.376 200.4736 200.4736 0 0 1 28.16-102.7328c4.0704-8.32 103.2448-196.0448 141.1584-267.7504 13.4912-25.4208 33.0496-25.4208 46.5664 0A114426.624 114426.624 0 0 1 684.6208 363.52a202.24 202.24 0 0 1 29.6192 105.4464 195.328 195.328 0 0 1-192.7168 197.376z m0-332.0576a123.648 123.648 0 1 0 120.704 123.5968 122.3168 122.3168 0 0 0-120.704-123.5968z m0 221.3888a97.8176 97.8176 0 1 1 95.488-97.792 96.768 96.768 0 0 1-95.488 97.792z"  horiz-adv-x="1024" />

    
    <glyph glyph-name="fabu" unicode="&#58906;" d="M907.905244 695.289281l-25.700697 23.769848L109.200416 341.983723l-0.332344-33.893708 207.390119-94.270207 16.870089 33.729343-171.617942 78.008812 640.996582 312.68007-453.655499-469.877156L332.344381 40.104845h39.039628l17.025424 114.976707 451.274902 467.375541-204.66634-535.278556-169.916483 84.957339-16.866478-33.732955L632.176812 52.495511l27.996402 5.418658z"  horiz-adv-x="1024" />

    
    <glyph glyph-name="fanhui" unicode="&#58889;" d="M511.9984-128c-282.303118 0-511.9984 229.695282-511.9984 511.9984s229.695282 511.9984 511.9984 511.9984a507.518414 507.518414 0 0 0 369.342846-157.503508c10.943966-11.327965 53.119834-57.023822 64.319799-71.295777a24.383924 24.383924 0 0 0-38.39988-30.015906 1741.626557 1741.626557 0 0 1-60.99181 67.519789A459.518564 459.518564 0 0 1 511.9984 847.228952C256.575198 847.228952 48.767848 639.421602 48.767848 383.9984S256.575198-79.232152 511.9984-79.232152 975.228952 128.575198 975.228952 383.9984A24.319924 24.319924 0 1 0 1023.9968 383.9984c0-282.303118-229.695282-511.9984-511.9984-511.9984zM917.949131 603.453714h-186.495417a24.319924 24.319924 0 1 0 0 48.767848h186.495417c4.671985 0 8.575973 3.839988 8.575974 8.511973V847.228952a24.319924 24.319924 0 1 0 48.767847 0v-186.559417a57.407821 57.407821 0 0 0-57.343821-57.215821z"  horiz-adv-x="1024" />

    
    <glyph glyph-name="touxiang2" unicode="&#58902;" d="M512 895.654C229.425 895.654 0.343 666.574 0.343 384c0-282.573 229.082-511.653 511.655-511.653 282.572 0 511.656 229.08 511.656 511.653C1023.655 666.575 794.572 895.654 511.999 895.654z m0-990.786c-263.52 0-479.132 215.611-479.132 479.131 0 263.523 215.612 479.134 479.133 479.134 263.522 0 479.13-215.611 479.13-479.134 0-263.52-215.609-479.131-479.13-479.131zM802.084 98.715c-0.068 0.17-0.14 0.337-0.208 0.51-0.054 0.127-0.104 0.257-0.16 0.385-35.093 86.537-107.823 153.783-197.885 181.435 79.377 35.237 134.747 114.738 134.747 207.182 0 125.136-101.444 226.578-226.579 226.578-125.137 0-226.579-101.442-226.579-226.578 0-92.444 55.37-171.946 134.748-207.182-90.064-27.653-162.795-94.9-197.889-181.44-0.054-0.123-0.103-0.249-0.154-0.375l-0.211-0.515 0.02-0.01a16.712 16.712 0 0 1-1.044-5.78c0-9.28 7.522-16.799 16.799-16.799 7.432 0 13.725 4.831 15.938 11.52 44.769 94.832 146.822 173.648 258.372 173.648 111.35 0 213.314-78.534 258.21-173.136 2.055-6.953 8.481-12.032 16.102-12.032 9.277 0 16.797 7.52 16.797 16.799 0 2.034-0.38 3.975-1.043 5.78l0.02 0.01zM318.59 488.227c0 106.817 86.592 193.409 193.41 193.409 106.815 0 193.408-86.592 193.408-193.41 0-106.817-86.593-193.408-193.409-193.408-106.817 0-193.41 86.591-193.41 193.409z"  horiz-adv-x="1024" />

    
    <glyph glyph-name="dengdai" unicode="&#59472;" d="M512-65.50857187999998c-252.48 0-457.1428575 204.6628575-457.1428575 457.1428575s204.6628575 457.1428575 457.1428575 457.14285751 457.1428575-204.6628575 457.1428575-457.14285751-204.6628575-457.1428575-457.1428575-457.1428575z m-182.85714281 411.42857157a45.71428594 45.71428594 0 1 1 0 91.42857187 45.71428594 45.71428594 0 0 1 0-91.42857187z m182.85714281 0a45.71428594 45.71428594 0 1 1 0 91.42857187 45.71428594 45.71428594 0 0 1 0-91.42857187z m182.85714281 0a45.71428594 45.71428594 0 1 1 0 91.42857187 45.71428594 45.71428594 0 0 1 0-91.42857187z"  horiz-adv-x="1024" />

    
    <glyph glyph-name="monikaoshi" unicode="&#58924;" d="M718.982-15.463h-514.16c-31.64 0-56.69 26.367-56.69 56.69V725.455c0 31.64 26.368 56.69 56.69 56.69h514.16c31.641 0 56.69-26.368 56.69-56.69v-110.742h-50.098V725.455c0 3.955-2.636 6.592-6.592 6.592h-514.16c-3.955 0-6.592-2.637-6.592-6.592v-684.228c0-3.956 2.637-6.592 6.592-6.592h514.16c3.956 0 6.592 2.636 6.592 6.592v104.15h50.098v-102.832c0-31.64-25.049-58.008-56.69-58.008zM446.082 298.307H336.658c-14.502 0-25.049 11.865-25.049 25.048 0 13.184 11.866 25.05 25.05 25.05h109.423c14.502 0 25.049-11.866 25.049-25.05 0-14.501-10.547-25.048-25.049-25.048z m71.191-222.803c-6.591 0-11.865 2.637-14.502 5.273-7.91 6.592-10.546 14.502-7.91 25.05l39.551 166.112c1.318 3.956 2.637 7.91 5.274 10.547l251.806 308.496c3.955 5.274 9.229 7.91 14.502 9.229 69.873 9.228 129.2-39.55 138.428-104.15 1.318-6.592-1.318-13.184-5.274-17.14L693.934 157.243c-2.637-3.955-6.592-6.592-10.547-7.91l-156.885-67.236c-3.955-5.274-6.592-6.592-9.229-6.592zM579.236 254.8L552.87 144.059l104.15 44.824L891.688 496.06c-9.228 31.64-39.55 52.734-72.51 52.734L579.238 254.8zM857.41 387.955c-11.865 0-23.73 9.229-25.049 21.094-2.636 18.457-13.183 36.914-29.004 47.46-14.502 11.866-35.595 15.821-54.052 14.503-14.502-1.319-26.367 7.91-29.004 19.775-1.319 14.502 7.91 26.367 19.775 29.004 32.96 3.955 64.6-3.955 90.967-23.73 26.367-18.457 43.506-48.78 47.46-81.739 1.32-14.502-7.91-26.367-19.774-29.004 2.636 2.637 1.318 2.637-1.319 2.637zM662.293 161.197c-11.865 0-23.73 9.229-25.049 21.094-2.637 14.502-10.547 30.322-23.73 40.87-13.184 10.546-29.004 14.501-43.506 11.864-14.502-1.318-26.367 7.91-29.004 19.776-1.318 14.502 7.91 26.367 19.775 29.004 29.004 3.955 58.008-3.955 81.739-21.094 23.73-17.139 39.55-43.506 43.505-72.51 1.319-14.502-7.91-26.367-19.775-29.004h-3.955zM576.6 432.78H336.658c-14.502 0-25.049 11.866-25.049 25.05 0 13.183 11.866 25.048 25.05 25.048h239.94c14.503 0 25.05-11.865 25.05-25.049 0-14.502-10.547-25.049-25.05-25.049z m0 130.518H336.658c-14.502 0-25.049 11.865-25.049 25.049 0 13.183 11.866 25.049 25.05 25.049h239.94c14.503 0 25.05-11.866 25.05-25.05 0-14.501-10.547-25.048-25.05-25.048z"  horiz-adv-x="1037" />

    
    <glyph glyph-name="yulan1" unicode="&#59079;" d="M512 593.43229167c157.78125001 0 294.046875-92.8125 357.75-226.54687501h62.015625c-67.5 166.21875001-229.921875 283.078125-419.765625 283.07812501S159.734375 533.10416667 92.234375 366.88541668000005h62.015625C217.953125 500.61979167 354.21874999 593.43229167 512 593.43229167z m0-452.67187499c-157.78125001 0-294.046875 92.8125-357.328125 226.54687499H92.234375C159.734375 201.08854167000004 322.15624999 84.22916667000004 512 84.22916667000004s352.265625 117.28125001 419.765625 283.078125h-62.015625c-63.703125-134.15625001-199.96875001-226.546875-357.75-226.54687499zM360.96874999 366.88541668000005c0-83.53125001 67.5-151.03125001 151.03125001-151.03125001 83.53125001 0 151.03125001 67.5 151.03125001 151.03125001 0 83.53125001-67.5 151.03125001-151.03125001 151.03124999-83.53125001 0-151.03125001-67.5-151.03125001-151.03125001z m245.53125001 0c0-51.890625-42.1875-94.5-94.5-94.50000002s-94.5 42.1875-94.5 94.5c0 51.890625 42.1875 94.5 94.5 94.5 51.890625 0 94.5-42.1875 94.5-94.5z"  horiz-adv-x="1024" />

    
    <glyph glyph-name="daoru" unicode="&#58925;" d="M819.9-63.1H191.3c-69.5 0-125.7 56.3-125.7 125.7V691.3c0 69.4 58.4 140.4 127.8 140.4h351.5v-58.9H193.4c-34.8 0-68.9-34.2-68.9-68.9l-1-641.2c0-34.7 33.1-67.8 67.8-67.8l641.2 1c34.7 0 68.9 34.2 68.9 68.9V416.3h58.9v-351.5c0.1-69.5-71-127.9-140.4-127.9zM414.6 541.2c18.9 0 33.3-14.7 33.3-32.1l1-153.1L902.3 821.2c13.3 12.1 34.8 12.1 48.1 0 13.3-12.2 13.3-32 0-44.1L501.3 315.8l146.1 1c18.9 0 33.3-14.7 33.3-32.1 0-17.3-14.4-32-33.3-32.1H415.3c-18.9 0-34 13.9-34 31.3V509.1c0.1 17.3 14.5 32 33.3 32.1z"  horiz-adv-x="1024" />

    
    <glyph glyph-name="gouwucheman1" unicode="&#59043;" d="M335 247v0.5h481.9c8.5 0 16.1 5.4 18.9 13.5L957 613.8c2.1 6.1 1.1 12.9-2.6 18.1-3.8 5.3-9.8 8.4-16.3 8.4H250.2l-23.6 87.3c-2.4 8.7-10.3 14.8-19.3 14.8H85.5c-11 0-20-9-20-20s9-20 20-20h106.4l19.7-72.9 3-11.3c0.2-2.1 0.8-4.1 1.6-5.9L304 280.8c-29.2-12.2-49.8-41-49.8-74.6 0-24.4 10.9-46.3 28-61.1-18-15.1-29.4-37.7-29.4-62.8 0-45.4 37.1-82.3 82.7-82.3s82.7 36.9 82.7 82.3c0 15.4-4.3 29.8-11.7 42.1h311.7c-7.4-12.3-11.7-26.7-11.7-42.1 0-45.4 37.1-82.3 82.7-82.3s82.7 36.9 82.7 82.3c0 42.8-33.1 78.1-75.2 81.9-0.6 0.1-1.3 0.1-1.9 0.1-1.8 0.1-3.7 0.2-5.6 0.2-1.7 0-3.5-0.1-5.2-0.2H340.6c-1.7 0.1-3.4 0.2-5.2 0.2h-0.4v0.9c-22.5 0-40.8 18.3-40.8 40.8S312.5 247 335 247z m43.1-164.8c0-23.3-19.1-42.3-42.7-42.3-23.5 0-42.7 19-42.7 42.3 0 22.2 17.3 40.4 39.2 42.1h7.3c21.8-1.9 38.9-20 38.9-42.1z m453.7 0c0-23.3-19.1-42.3-42.7-42.3-23.5 0-42.7 19-42.7 42.3 0 22 17.1 40.2 38.9 42.1h7.6c21.8-1.9 38.9-20 38.9-42.1z"  horiz-adv-x="1024" />

    
    <glyph glyph-name="gouwuche" unicode="&#58884;" d="M975.592727 567.389091L867.607273 264.843636c-14.894545-41.890909-54.923636-70.749091-99.607273-70.749091H348.16c-50.269091 0-94.021818 36.305455-103.330909 85.643637l-70.749091 360.261818-23.272727 107.985455H70.749091c-12.101818 0-22.341818 10.24-22.341818 22.341818 0 12.101818 10.24 22.341818 22.341818 22.341818h98.676364c1.861818 0 2.792727 0 4.654545-0.930909 0.930909 0 2.792727-0.930909 3.723636-1.861818 0.930909-0.930909 2.792727-1.861818 3.723637-2.792728l2.792727-2.792727c0.930909-0.930909 1.861818-1.861818 1.861818-3.723636 0.930909-0.930909 1.861818-2.792727 1.861818-3.723637 0-0.930909 0.930909-0.930909 0.930909-1.861818l23.272728-107.985454H902.981818c24.203636 0 47.476364-12.101818 61.44-31.650909 15.825455-19.549091 18.618182-44.683636 11.170909-67.956364z m-46.545454 41.890909c-5.585455 8.378182-13.963636 12.101818-24.203637 12.101818H223.418182l65.163636-332.334545c5.585455-27.927273 30.72-48.407273 59.578182-48.407273h419.84c25.134545 0 48.407273 15.825455 56.785455 40.029091l107.054545 302.545454c3.723636 8.378182 2.792727 18.618182-2.792727 26.065455zM331.403636 145.687273c50.269091 0 91.229091-40.96 91.229091-91.229091s-40.96-91.229091-91.229091-91.229091-91.229091 40.96-91.229091 91.229091 40.96 91.229091 91.229091 91.229091z m0-136.843637c25.134545 0 46.545455 20.48 46.545455 45.614546s-20.48 45.614545-46.545455 45.614545c-25.134545 0-45.614545-20.48-45.614545-45.614545s20.48-45.614545 45.614545-45.614546zM735.418182 145.687273c50.269091 0 91.229091-40.96 91.229091-91.229091s-40.96-91.229091-91.229091-91.229091-91.229091 40.96-91.229091 91.229091 40.96 91.229091 91.229091 91.229091z m0-136.843637c25.134545 0 46.545455 20.48 46.545454 45.614546s-20.48 45.614545-46.545454 45.614545c-25.134545 0-45.614545-20.48-45.614546-45.614545s20.48-45.614545 45.614546-45.614546z m0 0z"  horiz-adv-x="1024" />

    
    <glyph glyph-name="shangchuan-tianchong" unicode="&#58982;" d="M512 896C228.266667 896 0 667.733333 0 384s228.266667-512 512-512 512 228.266667 512 512S795.733333 896 512 896z m181.333333-443.733333c-8.533333-8.533333-21.333333-8.533333-29.866666 0L541.866667 576c-2.133333 2.133333-6.4 4.266667-8.533334 6.4V149.33333300000004c0-12.8-8.533333-21.333333-21.333333-21.333333s-21.333333 8.533333-21.333333 21.333333V582.4c-4.266667-2.133333-6.4-4.266667-10.666667-6.4l-121.6-123.733333c-8.533333-8.533333-21.333333-8.533333-29.866667 0-8.533333 8.533333-8.533333 23.466667 0 32l153.6 155.733333c17.066667 17.066667 44.8 17.066667 61.866667 0l153.6-155.733333c4.266667-8.533333 4.266667-23.466667-4.266667-32z"  horiz-adv-x="1024" />

    
    <glyph glyph-name="xiazai2" unicode="&#59226;" d="M247.808 557.056c-3.072 0-5.12 1.024-7.168 3.072l-43.008 46.08c-4.096 4.096-3.072 10.24 1.024 14.336 4.096 4.096 10.24 3.072 14.336-1.024l34.816-37.888 70.656 92.16c3.072 4.096 10.24 5.12 14.336 2.048 4.096-3.072 5.12-10.24 2.048-14.336L256 561.152c-2.048-2.048-5.12-4.096-8.192-4.096zM247.808 321.536c-3.072 0-5.12 1.024-7.168 3.072l-43.008 46.08c-4.096 4.096-3.072 10.24 1.024 14.336 4.096 4.096 10.24 3.072 14.336-1.024l34.816-37.888 70.656 92.16c3.072 4.096 10.24 5.12 14.336 2.048 4.096-3.072 5.12-10.24 2.048-14.336L256 325.632c-2.048-2.048-5.12-3.072-8.192-4.096zM247.808 102.4c-3.072 0-5.12 1.024-7.168 3.072l-43.008 46.08c-4.096 4.096-3.072 10.24 1.024 14.336 4.096 4.096 10.24 3.072 14.336-1.024l34.816-37.888 70.656 92.16c3.072 4.096 10.24 5.12 14.336 2.048 4.096-3.072 5.12-10.24 2.048-14.336L256 105.472c-2.048-2.048-5.12-3.072-8.192-3.072zM790.528 534.528H417.792c-13.312 0-24.576 11.264-24.576 24.576v97.28c0 13.312 11.264 24.576 24.576 24.576h373.76c13.312 0 24.576-11.264 24.576-24.576v-97.28c-1.024-13.312-12.288-24.576-25.6-24.576zM417.792 672.768c-9.216 0-16.384-7.168-16.384-16.384v-97.28c0-9.216 7.168-16.384 16.384-16.384h373.76c9.216 0 16.384 7.168 16.384 16.384v97.28c0 9.216-7.168 16.384-16.384 16.384H417.792zM790.528 307.2H417.792c-13.312 0-24.576 11.264-24.576 24.576v97.28c0 13.312 11.264 24.576 24.576 24.576h373.76c13.312 0 24.576-11.264 24.576-24.576v-97.28c-1.024-13.312-12.288-24.576-25.6-24.576zM417.792 445.44c-9.216 0-16.384-7.168-16.384-16.384v-97.28c0-9.216 7.168-16.384 16.384-16.384h373.76c9.216 0 16.384 7.168 16.384 16.384v97.28c0 9.216-7.168 16.384-16.384 16.384H417.792zM790.528 88.064H417.792c-13.312 0-24.576 11.264-24.576 24.576V209.92c0 13.312 11.264 24.576 24.576 24.576h373.76c13.312 0 24.576-11.264 24.576-24.576v-97.28c-1.024-14.336-12.288-24.576-25.6-24.576zM417.792 225.28c-9.216 0-16.384-7.168-16.384-16.384v-97.28c0-9.216 7.168-16.384 16.384-16.384h373.76c9.216 0 16.384 7.168 16.384 16.384v97.28c0 9.216-7.168 16.384-16.384 16.384H417.792z"  horiz-adv-x="1024" />

    
    <glyph glyph-name="checked" unicode="&#58901;" d="M426.005333 170.00533299999995l384 384-60.010667 61.994667-324.010667-324.010667-152 152-60.010667-60.010667zM810.005333 768q36.010667 0 60.992-26.005333t25.002667-60.010667l0-596.010667q0-34.005333-25.002667-60.010667t-60.992-26.005333l-596.010667 0q-36.010667 0-60.992 26.005333t-25.002667 60.010667l0 596.010667q0 34.005333 25.002667 60.010667t60.992 26.005333l596.010667 0z"  horiz-adv-x="1024" />

    
    <glyph glyph-name="dengdai3" unicode="&#58899;" d="M593.61875 183.01874999999995c64.40625 7.0875 82.63125 91.85625 27.16875 124.0875l-79.36875 39.7125a41.85 41.85 0 0 0-22.275 37.2375c0 15.46875 8.6625 30.43125 22.275 37.2375l78.69375 39.375c55.9125 32.5125 38.025 116.775-25.9875 124.36875h-0.39375l-1.29375 0.1125a722.8125 722.8125 0 0 1-159.80625 0l-1.35-0.1125h-0.39375c-64.0125-7.59375-81.9-91.9125-26.71875-124.03125l79.425-39.7125a41.85 41.85 0 0 0 22.275-37.2375 40.6125 40.6125 0 0 0-23.45625-37.2375l-78.75-39.375c-56.08125-32.56875-37.9125-117.3375 26.49375-124.425 54.50625-5.9625 109.0125-5.9625 163.4625 0z m0 0M99.4625 209.79375000000005a448.5375 448.5375 0 0 1 238.21875-238.21875c55.18125-23.2875 113.79375-35.15625 174.2625-35.15625a445.725 445.725 0 0 1 316.51875 131.0625A446.0625 446.0625 0 0 1 959.58125 384a446.0625 446.0625 0 0 1-131.11875 316.575A446.7375 446.7375 0 0 1 511.94375 831.6375c-60.46875 0-119.08125-11.8125-174.2625-35.15625a447.6375 447.6375 0 0 1-142.3125-95.90625 447.6375 447.6375 0 0 1-95.90625-142.3125A444.54375 444.54375 0 0 1 64.30625 384c0-60.35625 11.8125-119.025 35.15625-174.20625z m195.80625-30.375H378.6875c-44.55 37.35-46.125 114.46875 13.5 149.175l79.93125 39.9375a16.875 16.875 0 0 1 9.675 15.525 17.83125 17.83125 0 0 1-9 15.69375L392.75 439.8c-59.11875 34.425-57.43125 111.54375-12.88125 148.8375H295.26875v24.075h180.61875a722.8125 722.8125 0 0 0 73.2375 0h179.38125v-24.075h-83.41875c44.60625-37.29375 46.125-114.525-13.44375-149.175l-79.48125-39.7125a17.94375 17.94375 0 0 1-9-15.69375c0-6.69375 3.7125-13.10625 9-15.75l80.1-40.10625c59.0625-34.425 57.43125-111.43125 12.825-148.78125h83.41875v-24.13125H549.35c-24.975-1.18125-49.95-1.18125-74.86875 0H295.26875v24.13125z m0 0"  horiz-adv-x="1024" />

    
    <glyph glyph-name="daoru1" unicode="&#58908;" d="M34.136747 29.696V402.0224h100.352v-339.968c0-36.727467 14.1312-67.310933 50.722133-67.310933l629.213867-0.887467a66.491733 66.491733 0 0 1 66.423466 66.423467l-1.706666 597.879466c2.730667 56.5248-30.72 83.831467-67.310934 83.831467H472.75008V842.205867h372.1216c73.250133 0 135.441067-75.776 135.441067-149.0944v-665.873067a133.051733 133.051733 0 0 0-132.846934-132.9152H181.456213c-73.250133 0-148.138667 61.303467-147.319466 135.441067M83.698347 843.1616a49.5616 49.5616 0 0 1-34.133334-85.469867L453.29408 377.309867h-109.226667a49.5616 49.5616 0 1 1 0-99.1232h233.2672a49.493333 49.493333 0 0 1 34.133334 85.469866L117.83168 829.508267a49.425067 49.425067 0 0 1-34.133333 13.653333M577.40288 618.7008c-27.306667 0-49.5616-22.186667-49.5616-49.5616v-241.322667a49.5616 49.5616 0 0 1 99.1232 0V569.1392a49.5616 49.5616 0 0 1-49.5616 49.5616"  horiz-adv-x="1024" />

    
    <glyph glyph-name="dengdai1" unicode="&#58974;" d="M512 834C263.6 834 62 632.4 62 384s201.6-450 450-450 450 201.6 450 450S760.4 834 512 834z m220.5-549H485c-9.9 0-18 8.1-18 18V595.5c0 12.6 9.9 22.5 22.5 22.5s22.5-9.9 22.5-22.5v-265.5h220.5c12.6 0 22.5-9.9 22.5-22.5s-9.9-22.5-22.5-22.5z"  horiz-adv-x="1024" />

    
    <glyph glyph-name="check-box-uncheck" unicode="&#58897;" d="M764 744c59.544 0 108-48.456 108-108l0-504c0-59.544-48.456-108-108-108l-504 0c-59.544 0-108 48.456-108 108l0 504c0 59.544 48.456 108 108 108L764 744M764 780l-504 0c-79.524 0-144-64.476-144-144l0-504c0-79.524 64.476-144 144-144l504 0c79.524 0 144 64.476 144 144l0 504C908 715.524 843.524 780 764 780L764 780z"  horiz-adv-x="1024" />

    
    <glyph glyph-name="xia1" unicode="&#59473;" d="M663.88 540.84733334c12.608 12.607 12.608 33.009 0 45.618l-151.879 151.878-151.878-151.878c-12.609-12.609-12.60899999-33.009 0-45.617 12.608-12.608 33.009-12.608 45.615 0l73.98 73.97899999 0-533.22399999c0-17.811 14.424-32.258 32.259-32.258 17.836 0 32.259 14.447 32.259 32.258l0 533.222 73.978-73.979c12.609-12.608 33.01-12.608 45.61800001 0l0.04799999 0z"  horiz-adv-x="1024" />

    


  </font>
</defs>
</svg>
